<svg width="378" height="182" viewBox="0 0 378 182" fill="none" xmlns="http://www.w3.org/2000/svg">
<g clip-path="url(#clip0_14_3)">
<path d="M377.974 0.00366211H0.00463867V148.889H377.974V0.00366211Z" fill="#3465A5"/>
<path d="M0.00463867 148.389V0.00366211H377.973V148.389C319.182 157.619 255.496 162.667 188.989 162.667C122.482 162.667 58.7961 157.619 0.00463867 148.389Z" fill="#3465A5"/>
<path opacity="0.08" fill-rule="evenodd" clip-rule="evenodd" d="M237.13 180.959C233.001 180.849 228.889 180.693 224.797 180.492L224.905 176.696H237.009L237.13 180.959ZM259.253 181.101C256.746 181.135 254.232 181.152 251.713 181.152C248.943 181.152 246.18 181.131 243.425 181.09L243.3 176.696H259.253V181.101ZM271.829 180.784C269.738 180.861 267.642 180.926 265.541 180.978V118.576H271.829V180.784ZM284.405 180.176C282.314 180.301 280.218 180.415 278.117 180.517V129.647H328.421V175.693C326.332 175.995 324.236 176.285 322.133 176.563V166.733C322.149 160.786 320.638 154.913 317.711 149.552C314.785 144.192 310.519 139.484 305.234 135.78C304.676 135.387 303.983 135.173 303.269 135.173C302.555 135.173 301.862 135.387 301.304 135.78C296.019 139.484 291.753 144.192 288.827 149.552C285.901 154.913 284.389 160.786 284.405 166.733V180.176ZM315.845 177.356C307.556 178.349 299.169 179.153 290.693 179.762V166.733C290.68 162 291.792 157.317 293.958 152.985C296.124 148.654 299.295 144.769 303.269 141.581C307.243 144.769 310.415 148.654 312.58 152.985C314.746 157.317 315.858 162 315.845 166.733V177.356ZM340.997 173.714C338.908 174.069 336.812 174.412 334.709 174.743V118.576H340.997V173.714ZM363.446 169.368C360.591 169.989 357.721 170.587 354.835 171.161H347.285V129.647H364.577L363.446 169.368ZM377.974 129.647V165.976C375.257 166.655 372.525 167.312 369.778 167.948L370.868 129.647H377.974ZM377.974 99.2029V124.112H371.025L371.733 99.2029H377.974ZM377.974 88.1323V93.6676H371.89L372.047 88.1323H377.974ZM377.974 77.8935V82.597H372.204L372.28 79.8958C372.28 79.1251 372.628 78.3859 373.247 77.841C373.866 77.296 374.706 76.9898 375.581 76.9898C376.457 76.9898 377.296 77.296 377.915 77.841C377.935 77.8583 377.954 77.8758 377.974 77.8935ZM377.974 63.2237V72.0165H372.437V63.2237H377.974ZM306.413 40.6896V46.759H300.125V40.6896C297.974 40.2138 296.006 39.2431 294.422 37.877C292.838 36.511 291.695 34.7987 291.11 32.9156C290.525 31.0326 290.519 29.0465 291.094 27.161C291.668 25.2754 292.801 23.5582 294.378 22.1853L298.823 26.0987C297.645 27.1367 296.982 28.5444 296.982 30.0121C296.982 31.4799 297.645 32.8875 298.823 33.9256C300.021 34.9325 301.613 35.4944 303.269 35.4944C304.925 35.4944 306.517 34.9325 307.715 33.9256L312.16 37.839C310.571 39.2276 308.586 40.2125 306.413 40.6896ZM227.813 63.2237H234.101V72.0165H227.813V63.2237ZM215.237 171.161H218.771L218.614 176.696H215.237V171.161ZM220.107 124.112H215.237V129.647H219.95L220.107 124.112ZM215.237 93.6676H220.975L220.815 99.2028H215.237V93.6676ZM221.289 82.5971H215.237V88.1323H221.132L221.289 82.5971ZM240.782 88.1323H246.677V82.5971H240.625L240.782 88.1323ZM246.677 99.2028H241.097L240.939 93.6676H246.677V99.2028ZM259.253 113.041H252.965V118.576H259.253V113.041ZM353.573 113.041H347.285V118.576H353.573V113.041ZM359.861 93.6676H365.599L365.439 99.2028H359.861V93.6676ZM365.913 82.5971H359.861V88.1323H365.756L365.913 82.5971ZM266.462 108.316C267.052 107.797 267.851 107.506 268.685 107.506C269.519 107.506 270.319 107.797 270.908 108.316C271.498 108.835 271.829 109.539 271.829 110.273V113.041H265.541V110.273C265.541 109.539 265.872 108.835 266.462 108.316ZM234.805 99.2029H227.109L226.401 124.112H235.513L234.805 99.2029ZM234.491 88.1323H227.423L227.266 93.6676H234.648L234.491 88.1323ZM243.143 171.161H259.253V129.647H241.961L243.143 171.161ZM246.677 135.182H252.965V140.717H246.677V135.182ZM226.244 129.647H235.67L236.852 171.161H225.062L226.244 129.647ZM234.258 79.8958C234.258 79.1251 233.911 78.3859 233.291 77.841C232.672 77.296 231.833 76.9898 230.957 76.9898C230.082 76.9898 229.242 77.296 228.623 77.841C228.004 78.3859 227.656 79.1251 227.656 79.8958L227.58 82.597H234.334L234.258 79.8958ZM284.419 58.506C289.603 54.4227 296.313 52.1614 303.269 52.1531C310.226 52.1614 316.935 54.4227 322.119 58.506C327.304 62.5893 330.6 68.2091 331.38 74.2942H275.159C275.938 68.2091 279.234 62.5893 284.419 58.506ZM335.63 108.316C336.22 107.797 337.019 107.506 337.853 107.506C338.687 107.506 339.487 107.797 340.076 108.316C340.666 108.835 340.997 109.539 340.997 110.273V113.041H334.709V110.273C334.709 109.539 335.04 108.835 335.63 108.316ZM340.997 79.8295H265.541V85.3647H340.997V79.8295ZM271.829 90.8999V102.48C273.662 103.05 275.249 104.105 276.375 105.5C277.501 106.895 278.109 108.562 278.117 110.273V113.041H284.405V118.576H278.117V124.111H290.693V119.246C290.681 115.159 291.589 111.11 293.367 107.333C295.144 103.557 297.754 100.128 301.046 97.2461C301.636 96.7273 302.435 96.4358 303.269 96.4358C304.103 96.4358 304.902 96.7273 305.492 97.2461C308.784 100.128 311.394 103.557 313.172 107.333C314.949 111.11 315.857 115.159 315.845 119.246V124.111H328.421V118.576H322.133V113.041H328.421V110.273C328.429 108.562 329.038 106.895 330.163 105.5C331.289 104.105 332.876 103.05 334.709 102.48V90.8999H271.829ZM284.405 101.97H278.117V96.4352H284.405V101.97ZM328.421 101.97H322.133V96.4352H328.421V101.97ZM359.861 135.182H353.573V140.717H359.861V135.182ZM315.845 135.182H322.133V140.717H315.845V135.182ZM284.405 135.182H290.693V140.717H284.405V135.182ZM296.981 119.249C296.963 113.475 299.181 107.869 303.269 103.354C307.356 107.868 309.574 113.474 309.557 119.246V124.111H296.981V119.249Z" fill="white"/>
</g>
<defs>
<clipPath id="clip0_14_3">
<rect width="377.97" height="181.15" fill="white"/>
</clipPath>
</defs>
</svg>
