<svg xmlns="http://www.w3.org/2000/svg" fill="none" viewBox="0.05 0.72 377.97 181.15">
<rect x="0.0546875" y="0.723633" width="377.969" height="148.885" fill="#009465"/>
<path d="M0.0546875 149.109L0.0546875 0.723633H378.023V149.109C319.232 158.339 255.546 163.387 189.039 163.387C122.532 163.387 58.8461 158.339 0.0546875 149.109Z" fill="#009465"/>
<path opacity="0.08" fill-rule="evenodd" clip-rule="evenodd" d="M237.18 181.679C233.051 181.569 228.939 181.413 224.847 181.212L224.955 177.416H237.059L237.18 181.679ZM259.303 181.821C256.796 181.855 254.282 181.872 251.763 181.872C248.993 181.872 246.23 181.851 243.475 181.81L243.35 177.416H259.303V181.821ZM271.879 181.504C269.788 181.581 267.692 181.646 265.591 181.698V119.296H271.879V181.504ZM284.455 180.896C282.364 181.021 280.268 181.135 278.167 181.237V130.367H328.471V176.413C326.382 176.715 324.286 177.005 322.183 177.283V167.453C322.199 161.506 320.688 155.633 317.761 150.272C314.835 144.912 310.569 140.204 305.284 136.5C304.726 136.107 304.033 135.893 303.319 135.893C302.605 135.893 301.912 136.107 301.354 136.5C296.069 140.204 291.803 144.912 288.877 150.272C285.951 155.633 284.439 161.506 284.455 167.453V180.896ZM315.895 178.076C307.606 179.069 299.219 179.873 290.743 180.482V167.453C290.73 162.72 291.842 158.037 294.008 153.705C296.174 149.374 299.345 145.489 303.319 142.301C307.293 145.489 310.465 149.374 312.63 153.705C314.796 158.037 315.908 162.72 315.895 167.453V178.076ZM341.047 174.434C338.958 174.789 336.862 175.132 334.759 175.463V119.296H341.047V174.434ZM363.496 170.088C360.641 170.709 357.771 171.307 354.885 171.881H347.335V130.367H364.627L363.496 170.088ZM378.024 130.367V166.696C375.307 167.375 372.575 168.032 369.828 168.668L370.918 130.367H378.024ZM378.024 99.9229V124.832H371.075L371.783 99.9229H378.024ZM378.024 88.8523V94.3876H371.94L372.097 88.8523H378.024ZM378.024 78.6135V83.317H372.254L372.33 80.6158C372.33 79.8451 372.678 79.1059 373.297 78.561C373.916 78.016 374.756 77.7098 375.631 77.7098C376.507 77.7098 377.346 78.016 377.965 78.561C377.985 78.5783 378.004 78.5958 378.024 78.6135ZM378.024 63.9437V72.7365H372.487V63.9437H378.024ZM306.463 41.4096V47.479H300.175V41.4096C298.024 40.9338 296.056 39.9631 294.472 38.597C292.888 37.231 291.745 35.5187 291.16 33.6356C290.575 31.7526 290.569 29.7665 291.144 27.881C291.718 25.9954 292.851 24.2782 294.428 22.9053L298.873 26.8187C297.695 27.8567 297.032 29.2644 297.032 30.7321C297.032 32.1999 297.695 33.6075 298.873 34.6456C300.071 35.6525 301.663 36.2144 303.319 36.2144C304.975 36.2144 306.567 35.6525 307.765 34.6456L312.21 38.559C310.621 39.9476 308.636 40.9325 306.463 41.4096ZM227.863 63.9437H234.151V72.7365H227.863V63.9437ZM215.287 171.881H218.821L218.664 177.416H215.287V171.881ZM220.157 124.832H215.287V130.367H220L220.157 124.832ZM215.287 94.3876H221.025L220.865 99.9228H215.287V94.3876ZM221.339 83.3171H215.287V88.8523H221.182L221.339 83.3171ZM240.832 88.8523H246.727V83.3171H240.675L240.832 88.8523ZM246.727 99.9228H241.147L240.989 94.3876H246.727V99.9228ZM259.303 113.761H253.015V119.296H259.303V113.761ZM353.623 113.761H347.335V119.296H353.623V113.761ZM359.911 94.3876H365.649L365.489 99.9228H359.911V94.3876ZM365.963 83.3171H359.911V88.8523H365.806L365.963 83.3171ZM266.512 109.036C267.102 108.517 267.901 108.226 268.735 108.226C269.569 108.226 270.369 108.517 270.958 109.036C271.548 109.555 271.879 110.259 271.879 110.993V113.761H265.591V110.993C265.591 110.259 265.922 109.555 266.512 109.036ZM234.855 99.9229H227.159L226.451 124.832H235.563L234.855 99.9229ZM234.541 88.8523H227.473L227.316 94.3876H234.698L234.541 88.8523ZM243.193 171.881H259.303V130.367H242.011L243.193 171.881ZM246.727 135.902H253.015V141.437H246.727V135.902ZM226.294 130.367H235.72L236.902 171.881H225.112L226.294 130.367ZM234.308 80.6158C234.308 79.8451 233.961 79.1059 233.341 78.561C232.722 78.016 231.883 77.7098 231.007 77.7098C230.132 77.7098 229.292 78.016 228.673 78.561C228.054 79.1059 227.706 79.8451 227.706 80.6158L227.63 83.317H234.384L234.308 80.6158ZM284.469 59.226C289.653 55.1427 296.363 52.8814 303.319 52.8731C310.276 52.8814 316.985 55.1427 322.169 59.226C327.354 63.3093 330.65 68.9291 331.43 75.0142H275.209C275.988 68.9291 279.284 63.3093 284.469 59.226ZM335.68 109.036C336.27 108.517 337.069 108.226 337.903 108.226C338.737 108.226 339.537 108.517 340.126 109.036C340.716 109.555 341.047 110.259 341.047 110.993V113.761H334.759V110.993C334.759 110.259 335.09 109.555 335.68 109.036ZM341.047 80.5495H265.591V86.0847H341.047V80.5495ZM271.879 91.6199V103.2C273.712 103.77 275.299 104.825 276.425 106.22C277.551 107.615 278.159 109.282 278.167 110.993V113.761H284.455V119.296H278.167V124.831H290.743V119.966C290.731 115.879 291.639 111.83 293.417 108.053C295.194 104.277 297.804 100.848 301.096 97.9661C301.686 97.4473 302.485 97.1558 303.319 97.1558C304.153 97.1558 304.952 97.4473 305.542 97.9661C308.834 100.848 311.444 104.277 313.222 108.053C314.999 111.83 315.907 115.879 315.895 119.966V124.831H328.471V119.296H322.183V113.761H328.471V110.993C328.479 109.282 329.088 107.615 330.213 106.22C331.339 104.825 332.926 103.77 334.759 103.2V91.6199H271.879ZM284.455 102.69H278.167V97.1552H284.455V102.69ZM328.471 102.69H322.183V97.1552H328.471V102.69ZM359.911 135.902H353.623V141.437H359.911V135.902ZM315.895 135.902H322.183V141.437H315.895V135.902ZM284.455 135.902H290.743V141.437H284.455V135.902ZM297.031 119.969C297.013 114.195 299.231 108.589 303.319 104.074C307.406 108.588 309.624 114.194 309.607 119.966V124.831H297.031V119.969Z" fill="white"/>
</svg>