<svg width="361" height="241" viewBox="0 0 361 241" fill="none" xmlns="http://www.w3.org/2000/svg">
<rect width="360" height="240" transform="translate(0.90625 0.5)" fill="url(#paint0_linear_233_10950)"/>
<mask id="mask0_233_10950" style="mask-type:alpha" maskUnits="userSpaceOnUse" x="0" y="96" width="361" height="145">
<rect x="0.90625" y="96.5" width="360" height="144" fill="#C4C4C4"/>
</mask>
<g mask="url(#mask0_233_10950)">
<path fill-rule="evenodd" clip-rule="evenodd" d="M130.304 100.678C168.763 91.9001 209.075 110.947 240.658 134.633C271.955 158.106 296.476 191.948 303.412 230.508C309.911 266.64 294.15 302.311 276.617 334.546C261.651 362.063 237.667 381.74 211.68 399.166C186.696 415.919 160.243 429.98 130.304 432.657C98.1876 435.528 65.2538 431.432 37.6505 414.726C8.45377 397.056 -13.2075 369.468 -26.2817 337.892C-40.1926 304.295 -53.8318 264.8 -37.9742 232.081C-22.3907 199.928 23.1466 199.827 51.2793 177.859C81.0203 154.635 93.5451 109.069 130.304 100.678Z" fill="#007628" fill-opacity="0.04"/>
<path fill-rule="evenodd" clip-rule="evenodd" d="M141.28 134.371C197.461 129.834 254.532 85.1183 302.696 114.345C354.927 146.04 375.407 214.485 373.821 275.482C372.27 335.151 336.8 386.252 294.531 428.468C252.25 470.697 199.928 519.444 141.28 507.732C84.9687 496.486 79.0886 418.631 39.1235 377.463C0.508713 337.686 -76.1336 330.288 -84.1815 275.482C-92.3816 219.64 -43.8723 168.447 4.02825 138.467C44.3423 113.236 93.8533 138.201 141.28 134.371Z" fill="#009432" fill-opacity="0.04"/>
</g>
<defs>
<linearGradient id="paint0_linear_233_10950" x1="180" y1="0" x2="180" y2="240" gradientUnits="userSpaceOnUse">
<stop stop-color="white"/>
<stop offset="1" stop-color="#E6F4EB"/>
</linearGradient>
</defs>
</svg>
