<svg width="49" height="49" viewBox="0 0 49 49" fill="none" xmlns="http://www.w3.org/2000/svg">
<rect x="0.90625" y="0.5" width="48" height="48" rx="20" fill="url(#paint0_linear_221_10148)"/>
<path d="M27.2389 25.6665C28.2112 25.6665 29.0375 25.3262 29.7181 24.6457C30.3987 23.9651 30.7389 23.1387 30.7389 22.1665C30.7389 21.1943 30.3987 20.3679 29.7181 19.6873C29.0375 19.0068 28.2112 18.6665 27.2389 18.6665C26.2667 18.6665 25.4403 19.0068 24.7598 19.6873C24.0792 20.3679 23.7389 21.1943 23.7389 22.1665C23.7389 23.1387 24.0792 23.9651 24.7598 24.6457C25.4403 25.3262 26.2667 25.6665 27.2389 25.6665ZM19.0723 29.1665C18.4306 29.1665 17.8815 28.9378 17.4249 28.4805C16.9676 28.0239 16.7389 27.4748 16.7389 26.8332V17.4998C16.7389 16.8582 16.9676 16.3091 17.4249 15.8525C17.8815 15.3952 18.4306 15.1665 19.0723 15.1665H35.4056C36.0473 15.1665 36.5968 15.3952 37.0541 15.8525C37.5107 16.3091 37.7389 16.8582 37.7389 17.4998V26.8332C37.7389 27.4748 37.5107 28.0239 37.0541 28.4805C36.5968 28.9378 36.0473 29.1665 35.4056 29.1665H19.0723ZM14.4056 33.8332C13.7639 33.8332 13.2148 33.6049 12.7583 33.1483C12.3009 32.691 12.0723 32.1415 12.0723 31.4998V19.8332C12.0723 19.5026 12.1843 19.2253 12.4083 19.0013C12.6315 18.7781 12.9084 18.6665 13.2389 18.6665C13.5695 18.6665 13.8468 18.7781 14.0708 19.0013C14.294 19.2253 14.4056 19.5026 14.4056 19.8332V31.4998H33.0723C33.4028 31.4998 33.6797 31.6118 33.9029 31.8358C34.1269 32.0591 34.2389 32.3359 34.2389 32.6665C34.2389 32.9971 34.1269 33.2739 33.9029 33.4972C33.6797 33.7212 33.4028 33.8332 33.0723 33.8332H14.4056ZM19.0723 19.8332C19.7139 19.8332 20.263 19.6045 20.7196 19.1472C21.1769 18.6906 21.4056 18.1415 21.4056 17.4998H19.0723V19.8332ZM35.4056 19.8332V17.4998H33.0723C33.0723 18.1415 33.3005 18.6906 33.7571 19.1472C34.2144 19.6045 34.7639 19.8332 35.4056 19.8332ZM19.0723 26.8332H21.4056C21.4056 26.1915 21.1769 25.642 20.7196 25.1847C20.263 24.7281 19.7139 24.4998 19.0723 24.4998V26.8332ZM33.0723 26.8332H35.4056V24.4998C34.7639 24.4998 34.2144 24.7281 33.7571 25.1847C33.3005 25.642 33.0723 26.1915 33.0723 26.8332Z" fill="white"/>
<defs>
<linearGradient id="paint0_linear_221_10148" x1="0.90625" y1="0.5" x2="48.9062" y2="48.5" gradientUnits="userSpaceOnUse">
<stop stop-color="#009432"/>
<stop offset="1" stop-color="#009465"/>
</linearGradient>
</defs>
</svg>
