<svg width="71" height="73" viewBox="0 0 71 73" fill="none" xmlns="http://www.w3.org/2000/svg">
<rect x="11.9062" y="0.5" width="48" height="48" rx="20" fill="#009465" fill-opacity="0.12"/>
<path d="M24.2389 33.8335C23.9084 33.8335 23.6315 33.7215 23.4083 33.4975C23.1843 33.2743 23.0723 32.9974 23.0723 32.6668V17.5002C23.0723 17.1696 23.1843 16.8923 23.4083 16.6683C23.6315 16.4451 23.9084 16.3335 24.2389 16.3335C24.5695 16.3335 24.8468 16.4451 25.0708 16.6683C25.294 16.8923 25.4056 17.1696 25.4056 17.5002V28.0002H34.7389V21.0002C34.7389 20.3585 34.9676 19.809 35.4249 19.3517C35.8815 18.8951 36.4306 18.6668 37.0723 18.6668H44.0723C45.3556 18.6668 46.4542 19.1238 47.3681 20.0377C48.282 20.9516 48.7389 22.0502 48.7389 23.3335V32.6668C48.7389 32.9974 48.6269 33.2743 48.4029 33.4975C48.1797 33.7215 47.9028 33.8335 47.5723 33.8335C47.2417 33.8335 46.9648 33.7215 46.7416 33.4975C46.5176 33.2743 46.4056 32.9974 46.4056 32.6668V30.3335H25.4056V32.6668C25.4056 32.9974 25.294 33.2743 25.0708 33.4975C24.8468 33.7215 24.5695 33.8335 24.2389 33.8335ZM30.0723 26.8335C29.1 26.8335 28.2737 26.4932 27.5931 25.8127C26.9125 25.1321 26.5723 24.3057 26.5723 23.3335C26.5723 22.3613 26.9125 21.5349 27.5931 20.8543C28.2737 20.1738 29.1 19.8335 30.0723 19.8335C31.0445 19.8335 31.8709 20.1738 32.5514 20.8543C33.232 21.5349 33.5723 22.3613 33.5723 23.3335C33.5723 24.3057 33.232 25.1321 32.5514 25.8127C31.8709 26.4932 31.0445 26.8335 30.0723 26.8335ZM37.0723 28.0002H46.4056V23.3335C46.4056 22.6918 46.1773 22.1423 45.7208 21.685C45.2634 21.2284 44.7139 21.0002 44.0723 21.0002H37.0723V28.0002ZM30.0723 24.5002C30.4028 24.5002 30.6801 24.3882 30.9041 24.1642C31.1273 23.9409 31.2389 23.6641 31.2389 23.3335C31.2389 23.0029 31.1273 22.7257 30.9041 22.5017C30.6801 22.2784 30.4028 22.1668 30.0723 22.1668C29.7417 22.1668 29.4644 22.2784 29.2404 22.5017C29.0172 22.7257 28.9056 23.0029 28.9056 23.3335C28.9056 23.6641 29.0172 23.9409 29.2404 24.1642C29.4644 24.3882 29.7417 24.5002 30.0723 24.5002Z" fill="#009465"/>
<path d="M26.0401 69.5V60.335H27.1191V69.5H26.0401ZM29.3104 69.5V68.798L33.7044 63.52L33.7174 63.793H29.3104V62.974H34.6924V63.676L30.2464 68.98L30.2334 68.681H34.8354V69.5H29.3104ZM36.8286 69.5V62.974H37.8816V69.5H36.8286ZM36.6986 61.492V60.309H37.9986V61.492H36.6986ZM40.3262 69.5V64.482C40.3262 64.2393 40.3132 63.9923 40.2872 63.741C40.2699 63.481 40.2482 63.2253 40.2222 62.974H41.2362L41.3662 64.404H41.2102C41.4009 63.9013 41.7042 63.52 42.1202 63.26C42.5449 62.9913 43.0346 62.857 43.5892 62.857C44.3606 62.857 44.9412 63.065 45.3312 63.481C45.7299 63.8883 45.9292 64.534 45.9292 65.418V69.5H44.8762V65.483C44.8762 64.8677 44.7506 64.4213 44.4992 64.144C44.2566 63.858 43.8752 63.715 43.3552 63.715C42.7486 63.715 42.2676 63.9013 41.9122 64.274C41.5569 64.6467 41.3792 65.145 41.3792 65.769V69.5H40.3262Z" fill="black" fill-opacity="0.6"/>
</svg>
