<svg width="49" height="49" viewBox="0 0 49 49" fill="none" xmlns="http://www.w3.org/2000/svg">
<rect x="0.90625" y="0.5" width="48" height="48" rx="20" fill="#7E69B8" fill-opacity="0.12"/>
<path d="M27.2389 20.7373C27.2389 20.5623 27.3023 20.3823 27.4291 20.1972C27.5551 20.0128 27.6959 19.8915 27.8514 19.8332C28.4153 19.6387 28.9792 19.4929 29.5431 19.3957C30.107 19.2984 30.7 19.2498 31.3223 19.2498C31.7112 19.2498 32.0954 19.2739 32.4749 19.3222C32.8537 19.3712 33.2278 19.4346 33.5973 19.5123C33.7723 19.5512 33.9228 19.6484 34.0488 19.804C34.1755 19.9596 34.2389 20.1346 34.2389 20.329C34.2389 20.6596 34.132 20.9026 33.9181 21.0582C33.7042 21.2137 33.432 21.2526 33.1014 21.1748C32.8292 21.1165 32.5426 21.0726 32.2416 21.043C31.9398 21.0142 31.6334 20.9998 31.3223 20.9998C30.8167 20.9998 30.3209 21.0484 29.8348 21.1457C29.3487 21.2429 28.882 21.3693 28.4348 21.5248C28.0848 21.6609 27.7982 21.6512 27.5749 21.4957C27.3509 21.3401 27.2389 21.0873 27.2389 20.7373ZM27.2389 27.154C27.2389 26.979 27.3023 26.7989 27.4291 26.6138C27.5551 26.4295 27.6959 26.3082 27.8514 26.2498C28.4153 26.0554 28.9792 25.9096 29.5431 25.8123C30.107 25.7151 30.7 25.6665 31.3223 25.6665C31.7112 25.6665 32.0954 25.6906 32.4749 25.7388C32.8537 25.7878 33.2278 25.8512 33.5973 25.929C33.7723 25.9679 33.9228 26.0651 34.0488 26.2207C34.1755 26.3762 34.2389 26.5512 34.2389 26.7457C34.2389 27.0762 34.132 27.3193 33.9181 27.4748C33.7042 27.6304 33.432 27.6693 33.1014 27.5915C32.8292 27.5332 32.5426 27.4892 32.2416 27.4597C31.9398 27.4309 31.6334 27.4165 31.3223 27.4165C30.8167 27.4165 30.3209 27.4604 29.8348 27.5483C29.3487 27.6354 28.882 27.7568 28.4348 27.9123C28.0848 28.0484 27.7982 28.0434 27.5749 27.8972C27.3509 27.7517 27.2389 27.504 27.2389 27.154ZM27.2389 23.9457C27.2389 23.7707 27.3023 23.5906 27.4291 23.4055C27.5551 23.2212 27.6959 23.0998 27.8514 23.0415C28.4153 22.8471 28.9792 22.7012 29.5431 22.604C30.107 22.5068 30.7 22.4582 31.3223 22.4582C31.7112 22.4582 32.0954 22.4823 32.4749 22.5305C32.8537 22.5795 33.2278 22.6429 33.5973 22.7207C33.7723 22.7596 33.9228 22.8568 34.0488 23.0123C34.1755 23.1679 34.2389 23.3429 34.2389 23.5373C34.2389 23.8679 34.132 24.1109 33.9181 24.2665C33.7042 24.4221 33.432 24.4609 33.1014 24.3832C32.8292 24.3248 32.5426 24.2809 32.2416 24.2513C31.9398 24.2226 31.6334 24.2082 31.3223 24.2082C30.8167 24.2082 30.3209 24.2568 29.8348 24.354C29.3487 24.4512 28.882 24.5776 28.4348 24.7332C28.0848 24.8693 27.7982 24.8596 27.5749 24.704C27.3509 24.5484 27.2389 24.2957 27.2389 23.9457ZM18.4889 29.1665C19.4028 29.1665 20.2926 29.2684 21.1583 29.4722C22.0232 29.6767 22.8834 29.9832 23.7389 30.3915V18.8998C22.9417 18.4332 22.0959 18.0832 21.2014 17.8498C20.307 17.6165 19.4028 17.4998 18.4889 17.4998C17.7889 17.4998 17.094 17.5679 16.4041 17.704C15.7134 17.8401 15.0473 18.0443 14.4056 18.3165V29.8665C15.0862 29.6332 15.762 29.4582 16.4333 29.3415C17.1037 29.2248 17.7889 29.1665 18.4889 29.1665ZM26.0723 30.3915C26.9278 29.9832 27.7884 29.6767 28.6541 29.4722C29.519 29.2684 30.4084 29.1665 31.3223 29.1665C32.0223 29.1665 32.7079 29.2248 33.3791 29.3415C34.0495 29.4582 34.725 29.6332 35.4056 29.8665V18.3165C34.7639 18.0443 34.0982 17.8401 33.4083 17.704C32.7176 17.5679 32.0223 17.4998 31.3223 17.4998C30.4084 17.4998 29.5042 17.6165 28.6098 17.8498C27.7153 18.0832 26.8695 18.4332 26.0723 18.8998V30.3915ZM24.9056 33.2207C24.6334 33.2207 24.3759 33.1868 24.1333 33.1192C23.8898 33.0507 23.6612 32.9582 23.4473 32.8415C22.6889 32.3943 21.8917 32.0591 21.0556 31.8358C20.2195 31.6118 19.3639 31.4998 18.4889 31.4998C17.6723 31.4998 16.8704 31.6068 16.0833 31.8207C15.2954 32.0346 14.5417 32.3359 13.8223 32.7248C13.4139 32.9387 13.0204 32.929 12.6416 32.6957C12.262 32.4623 12.0723 32.1221 12.0723 31.6748V17.6165C12.0723 17.4026 12.1259 17.1984 12.2333 17.004C12.3398 16.8096 12.5 16.6637 12.7139 16.5665C13.6084 16.0998 14.5417 15.7498 15.5139 15.5165C16.4862 15.2832 17.4778 15.1665 18.4889 15.1665C19.6167 15.1665 20.7204 15.3123 21.7999 15.604C22.8787 15.8957 23.9139 16.3332 24.9056 16.9165C25.8973 16.3332 26.9329 15.8957 28.0124 15.604C29.0912 15.3123 30.1945 15.1665 31.3223 15.1665C32.3334 15.1665 33.325 15.2832 34.2973 15.5165C35.2695 15.7498 36.2028 16.0998 37.0973 16.5665C37.3112 16.6637 37.4718 16.8096 37.5791 17.004C37.6857 17.1984 37.7389 17.4026 37.7389 17.6165V31.6748C37.7389 32.1221 37.5495 32.4623 37.1708 32.6957C36.7912 32.929 36.3973 32.9387 35.9889 32.7248C35.2695 32.3359 34.5158 32.0346 33.7279 31.8207C32.9408 31.6068 32.1389 31.4998 31.3223 31.4998C30.4473 31.4998 29.5917 31.6118 28.7556 31.8358C27.9195 32.0591 27.1223 32.3943 26.3639 32.8415C26.15 32.9582 25.9218 33.0507 25.6791 33.1192C25.4357 33.1868 25.1778 33.2207 24.9056 33.2207Z" fill="#7E69B8"/>
</svg>
