<svg width="49" height="49" viewBox="0 0 49 49" fill="none" xmlns="http://www.w3.org/2000/svg">
    <defs>
        <linearGradient id="paint0_linear_221_10159" x1="0.90625" y1="0.5" x2="48.9062" y2="48.5" gradientUnits="userSpaceOnUse">
            <stop stop-color="#0098DD"/>
            <stop offset="1" stop-color="#0071C8"/>
        </linearGradient>
    </defs>
    <rect x="0.90625" y="0.5" width="48" height="48" rx="20" fill="url(#paint0_linear_221_10159)"/>
<path d="M29.5729 26.25C30.0785 26.25 30.4965 26.0847 30.8271 25.7542C31.1576 25.4236 31.3229 25.0056 31.3229 24.5C31.3229 23.9944 31.1576 23.5764 30.8271 23.2458C30.4965 22.9153 30.0785 22.75 29.5729 22.75C29.0674 22.75 28.6493 22.9153 28.3187 23.2458C27.9882 23.5764 27.8229 23.9944 27.8229 24.5C27.8229 25.0056 27.9882 25.4236 28.3187 25.7542C28.6493 26.0847 29.0674 26.25 29.5729 26.25ZM26.0729 30.3333C25.4312 30.3333 24.8821 30.1051 24.4256 29.6485C23.9683 29.1912 23.7396 28.6417 23.7396 28V21C23.7396 20.3583 23.9683 19.8088 24.4256 19.3515C24.8821 18.8949 25.4312 18.6667 26.0729 18.6667H34.2396C34.8812 18.6667 35.4307 18.8949 35.8881 19.3515C36.3446 19.8088 36.5729 20.3583 36.5729 21V28C36.5729 28.6417 36.3446 29.1912 35.8881 29.6485C35.4307 30.1051 34.8812 30.3333 34.2396 30.3333H26.0729ZM16.7396 35C16.0979 35 15.5484 34.7717 15.0911 34.3152C14.6345 33.8578 14.4062 33.3083 14.4062 32.6667V16.3333C14.4062 15.6917 14.6345 15.1422 15.0911 14.6848C15.5484 14.2283 16.0979 14 16.7396 14H33.0729C33.7146 14 34.2641 14.2283 34.7214 14.6848C35.178 15.1422 35.4062 15.6917 35.4062 16.3333H26.0729C24.6924 16.3333 23.5696 16.7658 22.7047 17.6307C21.8391 18.4963 21.4062 19.6194 21.4062 21V28C21.4062 29.3806 21.8391 30.5033 22.7047 31.3682C23.5696 32.2338 24.6924 32.6667 26.0729 32.6667H35.4062C35.4062 33.3083 35.178 33.8578 34.7214 34.3152C34.2641 34.7717 33.7146 35 33.0729 35H16.7396Z" fill="white"/>
</svg>
