<svg width="24" height="24" viewBox="0 0 24 24" fill="none" xmlns="http://www.w3.org/2000/svg">
<path fill-rule="evenodd" clip-rule="evenodd" d="M19.0859 4.87298C18.1634 3.94441 17.0658 3.20811 15.8567 2.70676C14.6476 2.20542 13.3511 1.94898 12.0421 1.9523C6.55351 1.9523 2.08541 6.41929 2.08319 11.9101C2.08319 13.665 2.54132 15.3777 3.41209 16.8885L2 22.0477L7.27897 20.6622C8.73919 21.4571 10.3751 21.8739 12.0377 21.8746H12.0421C17.5296 21.8746 21.9977 17.4076 22 11.9168C22.0037 10.6084 21.7481 9.31223 21.248 8.10322C20.7478 6.8942 20.013 5.7963 19.0859 4.87298ZM12.0421 20.1941H12.0388C10.5563 20.1942 9.10108 19.7954 7.82583 19.0393L7.52412 18.8596L4.39156 19.6816L5.22684 16.6278L5.0305 16.315C4.20165 14.9955 3.76287 13.4684 3.76483 11.9101C3.76705 7.34663 7.47974 3.63394 12.0455 3.63394C13.1328 3.63152 14.2098 3.84479 15.2142 4.2614C16.2186 4.678 17.1304 5.28967 17.8968 6.061C18.6673 6.82866 19.278 7.74141 19.6937 8.74652C20.1093 9.75162 20.3216 10.8291 20.3183 11.9168C20.3161 16.4803 16.6034 20.1941 12.0421 20.1941ZM16.5823 13.9944C16.3327 13.8691 15.1103 13.2679 14.8818 13.1847C14.6544 13.1015 14.4892 13.0604 14.3228 13.3089C14.1564 13.5574 13.6794 14.1176 13.5341 14.2839C13.3888 14.4503 13.2435 14.4703 12.995 14.3461C12.7465 14.2218 11.9445 13.9589 10.9939 13.1115C10.254 12.4514 9.75484 11.6373 9.60952 11.3877C9.46421 11.1381 9.59399 11.0039 9.71934 10.8796C9.83138 10.7687 9.96782 10.589 10.0921 10.4437C10.2163 10.2984 10.2573 10.1952 10.3405 10.0288C10.4237 9.86244 10.3827 9.71712 10.3195 9.59289C10.2573 9.46754 9.75927 8.24292 9.55184 7.74486C9.35107 7.26233 9.14585 7.32667 8.99278 7.32001C8.83424 7.31353 8.67557 7.31057 8.5169 7.31114C8.39073 7.31435 8.26658 7.3436 8.15225 7.39705C8.03791 7.45049 7.93584 7.52699 7.85246 7.62173C7.62395 7.87131 6.98169 8.47253 6.98169 9.69716C6.98169 10.9218 7.87353 12.1054 7.99777 12.2717C8.12201 12.4381 9.75262 14.9506 12.2485 16.0288C12.843 16.2851 13.3067 16.4381 13.6672 16.5535C14.2629 16.7432 14.8053 16.7154 15.2346 16.6522C15.7127 16.5812 16.7066 16.051 16.914 15.4697C17.1214 14.8885 17.1214 14.3904 17.0593 14.2862C16.9972 14.1819 16.8297 14.1187 16.5823 13.9944Z" fill="white"/>
</svg>
