<svg id="Layer_2" data-name="Layer 2" xmlns="http://www.w3.org/2000/svg" viewBox="0 0 450 450"><rect x="48.54" y="46.11" width="319.33" height="249.78" fill="#fafafa"/><path d="M367.87,295.89c0-1.51-.07-99-.18-249.78l.18.18-319.3,0h0l.22-.22c0,90.07,0,175.24,0,249.78l-.2-.19,319.33.19-319.33.2h-.2v-.2c0-74.54,0-159.71,0-249.78v-.22h.25l319.3,0h.19v.18C368,196.86,367.88,294.38,367.87,295.89Z" fill="#e1e1e1"/><path d="M95.09,107.26H76.27a2.36,2.36,0,0,1-2.36-2.35V78.85a2.36,2.36,0,0,1,2.36-2.36H88.21L97.45,86v18.89A2.36,2.36,0,0,1,95.09,107.26Z" fill="#ececec"/><path d="M88.21,76.49v7.34A2.19,2.19,0,0,0,90.4,86h7Z" fill="#f5f5f5"/><path d="M88.3,84.47a2.44,2.44,0,0,0,1.94,2.36,1.55,1.55,0,0,0,.23.06c.92.16,7,1.24,7,1.1V86h-7S88.64,86,88.3,84.47Z" fill="#e1e1e1"/><path d="M95.09,107.26a2.42,2.42,0,0,0,.41-.05,2.27,2.27,0,0,0,1.07-.49,2.36,2.36,0,0,0,.84-1.66c0-.76,0-1.65,0-2.63,0-4,0-9.59,0-16.41l0,0-9.25-9.52.06,0H76.8a6.78,6.78,0,0,0-.91,0,2.26,2.26,0,0,0-1.47.92A2.3,2.3,0,0,0,74,78.69c0,.41,0,.85,0,1.27V96.87c0,1.5,0,3,0,4.37v3.12a6.4,6.4,0,0,0,0,1,2.31,2.31,0,0,0,1.07,1.52,2.26,2.26,0,0,0,.87.3c.3,0,.62,0,.92,0h3.56l10.72,0,2.92,0h0l-2.92,0-10.72,0H76.88c-.31,0-.61,0-.94,0A2.35,2.35,0,0,1,75,107a2.41,2.41,0,0,1-1.13-1.6,5.81,5.81,0,0,1,0-1v-3.12c0-1.41,0-2.87,0-4.37V80c0-.43,0-.85,0-1.29a2.36,2.36,0,0,1,.44-1.24,2.53,2.53,0,0,1,1.59-1,5.82,5.82,0,0,1,.93,0H88.24l0,0L97.5,86l0,0v0c0,6.82,0,12.46,0,16.41,0,1,0,1.86,0,2.63a2.37,2.37,0,0,1-.87,1.69,2.46,2.46,0,0,1-1.1.49,1.85,1.85,0,0,1-.3,0Z" fill="#e1e1e1"/><path d="M97.45,86l-.18,0h-.52l-1.91,0H90.33a2.31,2.31,0,0,1-1.64-.77,2.22,2.22,0,0,1-.46-.82,2.55,2.55,0,0,1-.1-.9V81.94c0-1.07,0-2,0-2.84s0-1.43,0-1.91c0-.21,0-.38,0-.52s0-.18,0-.18a1.23,1.23,0,0,1,0,.18c0,.14,0,.31,0,.52,0,.48,0,1.12,0,1.91s0,1.77,0,2.84c0,.53,0,1.09,0,1.67a2.19,2.19,0,0,0,.53,1.61,2.12,2.12,0,0,0,1.52.71H92l2.83,0,1.91,0h.52Z" fill="#e1e1e1"/><path d="M87.85,83s-2.22.08-5,.08-5,0-5-.08,2.22-.09,5-.09S87.85,83,87.85,83Z" fill="#e1e1e1"/><path d="M92.56,86.7s-3.27.08-7.32.08-7.32,0-7.32-.08,3.28-.09,7.32-.09S92.56,86.65,92.56,86.7Z" fill="#e1e1e1"/><path d="M92.56,90.35c0,.05-3.27.09-7.32.09s-7.32,0-7.32-.09,3.28-.08,7.32-.08S92.56,90.31,92.56,90.35Z" fill="#e1e1e1"/><path d="M92.56,94s-3.27.09-7.32.09-7.32,0-7.32-.09,3.28-.08,7.32-.08S92.56,94,92.56,94Z" fill="#e1e1e1"/><path d="M92.56,97.67s-3.27.08-7.32.08-7.32,0-7.32-.08,3.28-.08,7.32-.08S92.56,97.63,92.56,97.67Z" fill="#e1e1e1"/><path d="M92.56,102.18s-3.27.09-7.32.09-7.32,0-7.32-.09,3.28-.08,7.32-.08S92.56,102.14,92.56,102.18Z" fill="#e1e1e1"/><path d="M97.34,115.07c0,.12-5.23.22-11.67.22S74,115.19,74,115.07s5.22-.22,11.66-.22S97.34,115,97.34,115.07Z" fill="#e1e1e1"/><path d="M93.18,118.13a64.65,64.65,0,0,1-7.51.22,64.79,64.79,0,0,1-7.51-.22,62.22,62.22,0,0,1,7.51-.22A62.09,62.09,0,0,1,93.18,118.13Z" fill="#e1e1e1"/><path d="M95.09,173.88H76.27a2.36,2.36,0,0,1-2.36-2.36V145.46a2.36,2.36,0,0,1,2.36-2.35H88.21l9.24,9.53v18.88A2.36,2.36,0,0,1,95.09,173.88Z" fill="#ececec"/><path d="M88.21,143.11v7.33a2.19,2.19,0,0,0,2.19,2.19h7Z" fill="#f5f5f5"/><path d="M88.3,151.09a2.44,2.44,0,0,0,1.94,2.36l.23.05c.92.17,7,1.25,7,1.11v-2h-7S88.64,152.58,88.3,151.09Z" fill="#e1e1e1"/><path d="M95.09,173.88s.15,0,.41,0a2.42,2.42,0,0,0,1.07-.5,2.32,2.32,0,0,0,.84-1.66c0-.76,0-1.64,0-2.62,0-4,0-9.59,0-16.41l0,0-9.25-9.52.06,0H76.8a6.78,6.78,0,0,0-.91,0A2.28,2.28,0,0,0,74,145.3c0,.42,0,.86,0,1.28v16.91c0,1.49,0,2.95,0,4.37V171a6.4,6.4,0,0,0,0,1,2.29,2.29,0,0,0,1.07,1.51,2.12,2.12,0,0,0,.87.31c.3,0,.62,0,.92,0h3.56l10.72,0h0l-10.72,0H76.88a7.45,7.45,0,0,1-.94,0,2.35,2.35,0,0,1-.92-.32,2.43,2.43,0,0,1-1.13-1.6,5.81,5.81,0,0,1,0-1v-3.12c0-1.42,0-2.88,0-4.37V146.58c0-.43,0-.85,0-1.29a2.33,2.33,0,0,1,.44-1.24,2.48,2.48,0,0,1,1.59-1,5.82,5.82,0,0,1,.93,0H88.24l0,0,9.24,9.54,0,0v0c0,6.82,0,12.46,0,16.41,0,1,0,1.86,0,2.63a2.37,2.37,0,0,1-.87,1.69,2.31,2.31,0,0,1-1.1.48,1.24,1.24,0,0,1-.3,0Z" fill="#e1e1e1"/><path d="M97.45,152.64h-.18l-.52,0-1.91,0-2.83,0H90.33a2.24,2.24,0,0,1-1.64-.77,2.27,2.27,0,0,1-.46-.81,2.57,2.57,0,0,1-.1-.9v-1.68c0-1.06,0-2,0-2.83s0-1.44,0-1.91c0-.21,0-.38,0-.52s0-.18,0-.18a1.23,1.23,0,0,1,0,.18c0,.14,0,.31,0,.52,0,.47,0,1.12,0,1.91s0,1.77,0,2.83c0,.54,0,1.1,0,1.68a2.15,2.15,0,0,0,.53,1.6,2.09,2.09,0,0,0,1.52.72H92l2.83,0,1.91,0,.52,0C97.39,152.62,97.45,152.63,97.45,152.64Z" fill="#e1e1e1"/><path d="M87.85,149.65s-2.22.09-5,.09-5,0-5-.09,2.22-.08,5-.08S87.85,149.61,87.85,149.65Z" fill="#e1e1e1"/><path d="M92.56,153.31c0,.05-3.27.09-7.32.09s-7.32,0-7.32-.09,3.28-.08,7.32-.08S92.56,153.27,92.56,153.31Z" fill="#e1e1e1"/><path d="M92.56,157c0,.05-3.27.08-7.32.08s-7.32,0-7.32-.08,3.28-.08,7.32-.08S92.56,156.92,92.56,157Z" fill="#e1e1e1"/><path d="M92.56,160.63c0,.05-3.27.08-7.32.08s-7.32,0-7.32-.08,3.28-.08,7.32-.08S92.56,160.58,92.56,160.63Z" fill="#e1e1e1"/><path d="M92.56,164.29s-3.27.08-7.32.08-7.32,0-7.32-.08,3.28-.08,7.32-.08S92.56,164.24,92.56,164.29Z" fill="#e1e1e1"/><path d="M92.56,168.8s-3.27.08-7.32.08-7.32,0-7.32-.08,3.28-.08,7.32-.08S92.56,168.75,92.56,168.8Z" fill="#e1e1e1"/><path d="M97.34,181.69c0,.12-5.23.22-11.67.22S74,181.81,74,181.69s5.22-.22,11.66-.22S97.34,181.57,97.34,181.69Z" fill="#e1e1e1"/><path d="M93.18,184.74a64.65,64.65,0,0,1-7.51.22,64.79,64.79,0,0,1-7.51-.22,64.79,64.79,0,0,1,7.51-.22A64.65,64.65,0,0,1,93.18,184.74Z" fill="#e1e1e1"/><path d="M93.8,255.6H75a2.35,2.35,0,0,1-2.35-2.36V227.19A2.35,2.35,0,0,1,75,224.83H86.91l9.25,9.53v18.88A2.36,2.36,0,0,1,93.8,255.6Z" fill="#ececec"/><path d="M86.91,224.83v7.33a2.19,2.19,0,0,0,2.19,2.19h7.06Z" fill="#f5f5f5"/><path d="M87,232.81a2.43,2.43,0,0,0,1.93,2.36l.23.05c.92.17,7,1.25,7,1.11v-2H89.1S87.34,234.3,87,232.81Z" fill="#e1e1e1"/><path d="M93.8,255.6s.14,0,.41,0a2.42,2.42,0,0,0,1.07-.5,2.32,2.32,0,0,0,.84-1.66c0-.76,0-1.64,0-2.62,0-4,0-9.59,0-16.41l0,0-9.25-9.52,0,0H75.5a6.7,6.7,0,0,0-.9,0,2.28,2.28,0,0,0-1.48.92,2.17,2.17,0,0,0-.41,1.15c0,.42,0,.86,0,1.28v7.51c0,3.26,0,6.4,0,9.4v7.49a5.36,5.36,0,0,0,0,1,2.26,2.26,0,0,0,1.07,1.51,2.08,2.08,0,0,0,.86.31c.3,0,.62,0,.93,0h3.55l10.73,0h0l-10.73,0H75.59a7.41,7.41,0,0,1-.94,0,2.35,2.35,0,0,1-.92-.32,2.43,2.43,0,0,1-1.13-1.6,5,5,0,0,1,0-1v-1c0-.69,0-1.39,0-2.1V230.84c0-.84,0-1.69,0-2.54,0-.43,0-.85,0-1.29a2.43,2.43,0,0,1,.45-1.24,2.46,2.46,0,0,1,1.58-1,5.86,5.86,0,0,1,.93,0H87l0,0,9.24,9.54,0,0v0c0,6.82,0,12.46,0,16.41,0,1,0,1.86,0,2.63a2.38,2.38,0,0,1-.88,1.69,2.29,2.29,0,0,1-1.09.48,1.32,1.32,0,0,1-.31,0Z" fill="#e1e1e1"/><path d="M96.16,234.36H96l-.52,0-1.91,0-2.84,0H89a2.24,2.24,0,0,1-1.64-.77,2.27,2.27,0,0,1-.46-.81,2.58,2.58,0,0,1-.11-.9c0-.58,0-1.14,0-1.68,0-1.06,0-2,0-2.83s0-1.44,0-1.91c0-.21,0-.38,0-.52a1.23,1.23,0,0,1,0-.18s0,.06,0,.18l0,.52c0,.47,0,1.12,0,1.91s0,1.77,0,2.83V232a2.19,2.19,0,0,0,.53,1.6,2.09,2.09,0,0,0,1.52.72h1.67l2.84,0,1.91,0,.52,0A.4.4,0,0,1,96.16,234.36Z" fill="#e1e1e1"/><path d="M86.56,231.37s-2.23.09-5,.09-5,0-5-.09,2.23-.08,5-.08S86.56,231.33,86.56,231.37Z" fill="#e1e1e1"/><path d="M91.27,235c0,.05-3.28.09-7.32.09s-7.33,0-7.33-.09S79.9,235,84,235,91.27,235,91.27,235Z" fill="#e1e1e1"/><path d="M91.27,238.69c0,.05-3.28.08-7.32.08s-7.33,0-7.33-.08,3.28-.08,7.33-.08S91.27,238.65,91.27,238.69Z" fill="#e1e1e1"/><path d="M91.27,242.35c0,.05-3.28.08-7.32.08s-7.33,0-7.33-.08,3.28-.08,7.33-.08S91.27,242.3,91.27,242.35Z" fill="#e1e1e1"/><path d="M91.27,246s-3.28.08-7.32.08-7.33,0-7.33-.08,3.28-.08,7.33-.08S91.27,246,91.27,246Z" fill="#e1e1e1"/><path d="M91.27,250.52s-3.28.08-7.32.08-7.33,0-7.33-.08,3.28-.08,7.33-.08S91.27,250.47,91.27,250.52Z" fill="#e1e1e1"/><path d="M96,263.41c0,.12-5.22.22-11.66.22s-11.66-.1-11.66-.22,5.22-.22,11.66-.22S96,263.29,96,263.41Z" fill="#e1e1e1"/><path d="M91.89,266.46a64.65,64.65,0,0,1-7.51.22,64.65,64.65,0,0,1-7.51-.22,64.65,64.65,0,0,1,7.51-.22A64.65,64.65,0,0,1,91.89,266.46Z" fill="#e1e1e1"/><path d="M217.63,253.74H198.8a2.36,2.36,0,0,1-2.35-2.36V225.32A2.35,2.35,0,0,1,198.8,223h11.94l9.24,9.52v18.89A2.36,2.36,0,0,1,217.63,253.74Z" fill="#ececec"/><path d="M210.74,223v7.33a2.19,2.19,0,0,0,2.19,2.19h7Z" fill="#f5f5f5"/><path d="M210.84,231a2.43,2.43,0,0,0,1.93,2.36l.23.05c.92.17,7,1.24,7,1.1v-2h-7S211.17,232.43,210.84,231Z" fill="#e1e1e1"/><path d="M217.63,253.74s.14,0,.41-.05a2.35,2.35,0,0,0,1.06-.5,2.31,2.31,0,0,0,.85-1.66c0-.76,0-1.64,0-2.62,0-3.95,0-9.6,0-16.42l0,0L210.68,223l.06,0H199.33a5.38,5.38,0,0,0-.9,0A2.34,2.34,0,0,0,197,224a2.23,2.23,0,0,0-.41,1.16c0,.42,0,.86,0,1.28V234c0,3.26,0,6.4,0,9.4v7.49a4.61,4.61,0,0,0,0,1,2.28,2.28,0,0,0,1.06,1.51,2.33,2.33,0,0,0,.87.31,7.18,7.18,0,0,0,.93,0H203l10.73,0h0l-10.73,0h-3.55a7.61,7.61,0,0,1-.95,0,2.31,2.31,0,0,1-.91-.32,2.48,2.48,0,0,1-1.14-1.6,5,5,0,0,1,0-1c0-.34,0-.68,0-1v-6.47c0-3,0-6.14,0-9.4v-7.51c0-.43,0-.85,0-1.29a2.43,2.43,0,0,1,.45-1.24,2.4,2.4,0,0,1,1.58-1,7.39,7.39,0,0,1,.93,0h11.45l0,0,9.23,9.54,0,0v0c0,6.82,0,12.47,0,16.42,0,1,0,1.86,0,2.62a2.34,2.34,0,0,1-.88,1.69,2.26,2.26,0,0,1-1.09.49l-.31,0Z" fill="#e1e1e1"/><path d="M220,232.49s-.06,0-.18,0l-.52,0-1.91,0-2.83,0h-1.67a2.3,2.3,0,0,1-2.11-1.59,2.52,2.52,0,0,1-.1-.9v-1.67c0-1.06,0-2,0-2.83s0-1.44,0-1.91c0-.21,0-.38,0-.52s0-.18,0-.18,0,.06,0,.18v.52c0,.47,0,1.12,0,1.91s0,1.77,0,2.83v1.67a2.2,2.2,0,0,0,.53,1.61,2.09,2.09,0,0,0,1.52.72h4.5l1.91,0,.52,0Z" fill="#e1e1e1"/><path d="M210.39,229.51c0,.05-2.23.09-5,.09s-5,0-5-.09,2.23-.08,5-.08S210.39,229.47,210.39,229.51Z" fill="#e1e1e1"/><path d="M215.1,233.17c0,.05-3.28.08-7.32.08s-7.33,0-7.33-.08,3.28-.08,7.33-.08S215.1,233.12,215.1,233.17Z" fill="#e1e1e1"/><path d="M215.1,236.83s-3.28.08-7.32.08-7.33,0-7.33-.08,3.28-.08,7.33-.08S215.1,236.78,215.1,236.83Z" fill="#e1e1e1"/><path d="M215.1,240.49s-3.28.08-7.32.08-7.33,0-7.33-.08,3.28-.08,7.33-.08S215.1,240.44,215.1,240.49Z" fill="#e1e1e1"/><path d="M215.1,244.15s-3.28.08-7.32.08-7.33,0-7.33-.08,3.28-.09,7.33-.09S215.1,244.1,215.1,244.15Z" fill="#e1e1e1"/><path d="M215.1,248.66s-3.28.08-7.32.08-7.33,0-7.33-.08,3.28-.08,7.33-.08S215.1,248.61,215.1,248.66Z" fill="#e1e1e1"/><path d="M219.87,261.55c0,.12-5.22.22-11.66.22s-11.67-.1-11.67-.22,5.23-.22,11.67-.22S219.87,261.43,219.87,261.55Z" fill="#e1e1e1"/><path d="M215.72,264.6a64.79,64.79,0,0,1-7.51.22,64.65,64.65,0,0,1-7.51-.22,64.65,64.65,0,0,1,7.51-.22A64.79,64.79,0,0,1,215.72,264.6Z" fill="#e1e1e1"/><path d="M142.92,65l.9,16.85a1,1,0,0,0,1,1.07h26a1.07,1.07,0,0,0,1-1.14V68.65a1.07,1.07,0,0,0-1-1.14l-16,.12a.88.88,0,0,1-.69-.33l-2.78-3.19a.91.91,0,0,0-.69-.33H143.9A1.09,1.09,0,0,0,142.92,65Z" fill="#ececec"/><rect x="143.36" y="65.52" width="28.39" height="19.8" fill="#f5f5f5"/><path d="M141.1,67.3,143.27,88a.66.66,0,0,0,.62.64h27.67a.66.66,0,0,0,.62-.68l1.4-20.65a.69.69,0,0,0-.63-.78H141.72A.69.69,0,0,0,141.1,67.3Z" fill="#ececec"/><path d="M169,99.07c0,.12-5.22.22-11.66.22s-11.67-.1-11.67-.22,5.22-.22,11.67-.22S169,99,169,99.07Z" fill="#e1e1e1"/><path d="M164.84,102.12a62,62,0,0,1-7.5.22,62.09,62.09,0,0,1-7.51-.22,64.65,64.65,0,0,1,7.51-.22A64.54,64.54,0,0,1,164.84,102.12Z" fill="#e1e1e1"/><path d="M143.84,144.19l.89,16.85a1,1,0,0,0,1,1.06h26a1.06,1.06,0,0,0,1-1.13V147.85a1.06,1.06,0,0,0-1-1.14l-16,.12a.91.91,0,0,1-.69-.33l-2.78-3.19a.91.91,0,0,0-.68-.33h-6.74A1.07,1.07,0,0,0,143.84,144.19Z" fill="#ececec"/><rect x="144.27" y="144.72" width="28.39" height="19.8" fill="#f5f5f5"/><path d="M142,146.49l2.17,20.65a.67.67,0,0,0,.62.65h27.67a.69.69,0,0,0,.63-.68l1.39-20.65a.7.7,0,0,0-.62-.79H142.63A.71.71,0,0,0,142,146.49Z" fill="#ececec"/><path d="M169.91,178.27c0,.12-5.22.22-11.66.22s-11.66-.1-11.66-.22,5.22-.22,11.66-.22S169.91,178.15,169.91,178.27Z" fill="#e1e1e1"/><path d="M165.76,181.32a64.65,64.65,0,0,1-7.51.22,64.65,64.65,0,0,1-7.51-.22,64.65,64.65,0,0,1,7.51-.22A64.65,64.65,0,0,1,165.76,181.32Z" fill="#e1e1e1"/><path d="M130.1,241.83l.89,16.85a1.06,1.06,0,0,0,1,1.07h26a1.07,1.07,0,0,0,1-1.14V245.49a1.07,1.07,0,0,0-1-1.14l-16,.12a.87.87,0,0,1-.69-.32L138.5,241a.9.9,0,0,0-.69-.32h-6.73A1.08,1.08,0,0,0,130.1,241.83Z" fill="#ececec"/><rect x="130.54" y="242.36" width="28.39" height="19.8" fill="#f5f5f5"/><path d="M128.28,244.14l2.17,20.65a.65.65,0,0,0,.62.64h27.67a.66.66,0,0,0,.62-.67l1.4-20.65a.7.7,0,0,0-.63-.79H128.9A.69.69,0,0,0,128.28,244.14Z" fill="#ececec"/><path d="M156.18,275.91c0,.13-5.22.22-11.66.22s-11.67-.09-11.67-.22,5.22-.22,11.67-.22S156.18,275.79,156.18,275.91Z" fill="#e1e1e1"/><path d="M152,279a64.54,64.54,0,0,1-7.5.22A64.65,64.65,0,0,1,137,279a64.65,64.65,0,0,1,7.51-.22A64.54,64.54,0,0,1,152,279Z" fill="#e1e1e1"/><rect x="225.2" y="60.35" width="187.92" height="165.26" fill="#fff"/><path d="M413.11,225.61c0-1.57-.07-65.83-.18-165.26l.18.18-187.9,0h0l.22-.22c0,60.06,0,116.61,0,165.26l-.19-.2,187.91.2-187.91.19H225v-.19c0-48.65,0-105.2,0-165.26v-.22h.23l187.9,0h.19v.19C413.19,159.78,413.11,224,413.11,225.61Z" fill="#e1e1e1"/><path d="M413.66,77.3c0,.08-41.73.14-93.18.14s-93.19-.06-93.19-.14,41.72-.15,93.19-.15S413.66,77.22,413.66,77.3Z" fill="#e1e1e1"/><path d="M238,69.56a1.93,1.93,0,1,1-1.93-1.93A1.93,1.93,0,0,1,238,69.56Z" fill="#ececec"/><path d="M244.32,69.56a1.93,1.93,0,1,1-1.93-1.93A1.93,1.93,0,0,1,244.32,69.56Z" fill="#ececec"/><path d="M250.65,69.56a1.93,1.93,0,1,1-1.93-1.93A1.93,1.93,0,0,1,250.65,69.56Z" fill="#ececec"/><path d="M404.37,91.88a1.21,1.21,0,0,0,.31-.06,1,1,0,0,0,.66-.62,1.61,1.61,0,0,0,.08-.68c0-.25,0-.54,0-.84,0-.62,0-1.32,0-2.12s0-1.68,0-2.64c0-.24,0-.5,0-.74a1.05,1.05,0,0,0-.31-.63,1,1,0,0,0-.67-.28h-.83l-7.68,0-44.43,0a1,1,0,0,0-.94.86v6.37a1.18,1.18,0,0,0,.12.69,1,1,0,0,0,.51.43,1.2,1.2,0,0,0,.33,0H366l20,0,13.47,0,3.66,0h1.28a2,2,0,0,1-.32,0h-1l-3.66,0L386,92l-20,0H351.48a1.29,1.29,0,0,1-.43-.07,1.16,1.16,0,0,1-.66-.55,1.49,1.49,0,0,1-.16-.84c0-.52,0-1,0-1.57V85.8c0-.54,0-1.08,0-1.62A1.24,1.24,0,0,1,351.46,83l44.43,0,7.68,0h.83a1.15,1.15,0,0,1,1.12,1.06c0,.26,0,.5,0,.75,0,1,0,1.85,0,2.64s0,1.5,0,2.12c0,.3,0,.59,0,.84a1.78,1.78,0,0,1-.09.71,1.1,1.1,0,0,1-.71.62A.66.66,0,0,1,404.37,91.88Z" fill="#e1e1e1"/><path d="M353.8,88.65l.15-.31a1.37,1.37,0,0,0,.91.32c.48,0,.68-.18.68-.42,0-.68-1.67-.25-1.67-1.28,0-.43.33-.79,1.06-.79a1.62,1.62,0,0,1,.89.24l-.13.32a1.4,1.4,0,0,0-.76-.23c-.47,0-.68.2-.68.44,0,.68,1.68.26,1.68,1.27,0,.43-.34.79-1.07.79A1.62,1.62,0,0,1,353.8,88.65Z" fill="#e1e1e1"/><path d="M358.34,88.05h-1.7a.72.72,0,0,0,.76.61.79.79,0,0,0,.61-.25l.21.24a1.06,1.06,0,0,1-.83.34,1.05,1.05,0,0,1-1.13-1.07,1,1,0,0,1,1.05-1.07,1,1,0,0,1,1,1.08A.53.53,0,0,1,358.34,88.05Zm-1.7-.28H358a.68.68,0,0,0-1.35,0Z" fill="#e1e1e1"/><path d="M360.48,87.7V89h-.36v-.28a.78.78,0,0,1-.69.3c-.47,0-.77-.25-.77-.62s.21-.61.84-.61h.6v-.07c0-.32-.19-.51-.56-.51a1.14,1.14,0,0,0-.67.22l-.15-.28a1.4,1.4,0,0,1,.86-.27C360.16,86.85,360.48,87.13,360.48,87.7Zm-.38.63V88h-.59c-.37,0-.48.15-.48.33s.18.34.46.34A.61.61,0,0,0,360.1,88.33Z" fill="#e1e1e1"/><path d="M362.31,86.85v.37h-.08a.62.62,0,0,0-.67.7v1h-.38v-2.1h.37v.35A.8.8,0,0,1,362.31,86.85Z" fill="#e1e1e1"/><path d="M362.57,87.92a1,1,0,0,1,1.1-1.07,1,1,0,0,1,.86.45l-.29.18a.66.66,0,0,0-.57-.3.74.74,0,0,0,0,1.48.66.66,0,0,0,.57-.3l.29.18a1,1,0,0,1-.86.45A1,1,0,0,1,362.57,87.92Z" fill="#e1e1e1"/><path d="M367,87.76V89h-.38V87.8c0-.41-.2-.61-.56-.61a.62.62,0,0,0-.67.7V89H365V86h.38v1.14a.92.92,0,0,1,.74-.32A.81.81,0,0,1,367,87.76Z" fill="#e1e1e1"/><path d="M367.51,88.72a.27.27,0,1,1,.27.27A.26.26,0,0,1,367.51,88.72Z" fill="#e1e1e1"/><path d="M368.41,88.72a.27.27,0,1,1,.27.27A.26.26,0,0,1,368.41,88.72Z" fill="#e1e1e1"/><path d="M369.31,88.72a.27.27,0,1,1,.27.27A.26.26,0,0,1,369.31,88.72Z" fill="#e1e1e1"/><path d="M341.61,106v29.64h36V106a2.56,2.56,0,0,0-2.56-2.55H344.17A2.56,2.56,0,0,0,341.61,106Z" fill="#e1e1e1"/><polyline points="343.3 119.53 343.54 108.64 375.07 108.64 375.07 114.85" fill="#f5f5f5"/><rect x="345.59" y="105.7" width="27.54" height="2.94" fill="#f5f5f5"/><path d="M345.59,105.7h.53l1.56,0,5.83,0,19.63-.06h.14v3.08c-.29.3-.08.09-.15.15h-8.78l-7.77,0-11-.06h-.06v-.07c0-.94,0-1.68,0-2.2,0-.23,0-.41,0-.56s0-.18,0-.18a1.07,1.07,0,0,1,0,.21c0,.14,0,.33,0,.56,0,.52,0,1.24,0,2.17l-.07-.06,11-.06,7.77,0h8.78l-.14.14V105.7l.15.15-19.53-.06-5.85-.05-1.6,0h-.57Z" fill="#e1e1e1"/><path d="M376.34,143c0,.08-6.88.15-15.37.15s-15.38-.07-15.38-.15,6.89-.15,15.38-.15S376.34,143,376.34,143Z" fill="#e1e1e1"/><path d="M338.84,114.18l2.77,21.44h36V114.85H361.28l-3.18-2.79H340.7A1.88,1.88,0,0,0,338.84,114.18Z" fill="#ececec"/><path d="M367.72,123.25c0,.08-3.94.15-8.81.15s-8.81-.07-8.81-.15,3.94-.14,8.81-.14S367.72,123.17,367.72,123.25Z" fill="#e1e1e1"/><path d="M367.72,125.36c0,.08-3.94.15-8.81.15s-8.81-.07-8.81-.15,3.94-.14,8.81-.14S367.72,125.28,367.72,125.36Z" fill="#e1e1e1"/><path d="M368.79,147.05c0,.08-4.32.15-9.64.15s-9.64-.07-9.64-.15,4.31-.15,9.64-.15S368.79,147,368.79,147.05Z" fill="#e1e1e1"/><path d="M263.26,106v29.64h36V106a2.55,2.55,0,0,0-2.55-2.55H265.81A2.55,2.55,0,0,0,263.26,106Z" fill="#e1e1e1"/><polyline points="264.95 119.53 265.19 108.64 296.71 108.64 296.71 114.85" fill="#f5f5f5"/><rect x="267.24" y="105.7" width="27.54" height="2.94" fill="#f5f5f5"/><path d="M267.24,105.7h.53l1.56,0,5.82,0,19.63-.06h.15v3.08c-.3.3-.09.09-.16.15H286l-7.78,0-11-.06h-.07v-.07c0-.94,0-1.68,0-2.2,0-.23,0-.41,0-.56s0-.18,0-.18,0,.08,0,.21,0,.33,0,.56c0,.52,0,1.24,0,2.17l-.06-.06,11-.06,7.78,0h8.77c-.06.06.16-.15-.14.14V105.7l.15.15-19.52-.06-5.86-.05-1.59,0h-.57Z" fill="#e1e1e1"/><path d="M298,143c0,.08-6.89.15-15.38.15s-15.37-.07-15.37-.15,6.88-.15,15.37-.15S298,143,298,143Z" fill="#e1e1e1"/><path d="M260.48,114.18l2.78,21.44h36V114.85H282.92l-3.17-2.79H262.34A1.88,1.88,0,0,0,260.48,114.18Z" fill="#ececec"/><path d="M289.37,123.25c0,.08-3.95.15-8.81.15s-8.82-.07-8.82-.15,3.95-.14,8.82-.14S289.37,123.17,289.37,123.25Z" fill="#e1e1e1"/><path d="M289.37,125.36c0,.08-3.95.15-8.81.15s-8.82-.07-8.82-.15,3.95-.14,8.82-.14S289.37,125.28,289.37,125.36Z" fill="#e1e1e1"/><path d="M290.43,147.05c0,.08-4.31.15-9.64.15s-9.64-.07-9.64-.15,4.32-.15,9.64-.15S290.43,147,290.43,147.05Z" fill="#e1e1e1"/><path d="M262.12,168.94v29.64h36V168.94a2.55,2.55,0,0,0-2.56-2.55H264.68A2.56,2.56,0,0,0,262.12,168.94Z" fill="#e1e1e1"/><polyline points="263.81 182.48 264.05 171.6 295.58 171.6 295.58 177.81" fill="#f5f5f5"/><rect x="266.11" y="168.66" width="27.54" height="2.94" fill="#f5f5f5"/><path d="M266.11,168.66h.52l1.57,0,5.82,0,19.63-.07h.15v3.09c-.3.3-.09.08-.16.15h-8.78l-7.77,0-11-.06H266v-.06c0-.95,0-1.68,0-2.21v-.55c0-.12,0-.18,0-.18s0,.07,0,.2,0,.33,0,.57c0,.51,0,1.24,0,2.17l-.06-.06,11-.06,7.77,0h8.78c-.06.07.16-.14-.14.15v-2.94l.15.15-19.52-.07-5.86,0-1.6,0h-.56Z" fill="#e1e1e1"/><path d="M296.85,206c0,.08-6.88.14-15.37.14s-15.37-.06-15.37-.14,6.88-.15,15.37-.15S296.85,205.91,296.85,206Z" fill="#e1e1e1"/><path d="M259.35,177.13l2.77,21.45h36V177.81H281.79L278.61,175h-17.4A1.87,1.87,0,0,0,259.35,177.13Z" fill="#ececec"/><path d="M288.23,186.21c0,.08-3.94.15-8.81.15s-8.81-.07-8.81-.15,3.95-.15,8.81-.15S288.23,186.13,288.23,186.21Z" fill="#e1e1e1"/><path d="M288.23,188.32c0,.08-3.94.15-8.81.15s-8.81-.07-8.81-.15,3.95-.15,8.81-.15S288.23,188.24,288.23,188.32Z" fill="#e1e1e1"/><path d="M289.3,210c0,.09-4.32.15-9.64.15S270,210.09,270,210s4.32-.14,9.64-.14S289.3,209.92,289.3,210Z" fill="#e1e1e1"/><path d="M341.34,168.94v29.64h36V168.94a2.55,2.55,0,0,0-2.55-2.55H343.89A2.55,2.55,0,0,0,341.34,168.94Z" fill="#e1e1e1"/><polyline points="343.03 182.48 343.27 171.6 374.79 171.6 374.79 177.81" fill="#f5f5f5"/><rect x="345.32" y="168.66" width="27.54" height="2.94" fill="#f5f5f5"/><path d="M345.32,168.66h.53l1.56,0,5.82,0,19.63-.07H373v3.09c-.3.3-.09.08-.16.15h-8.77l-7.78,0-11-.06h-.06v-.06c0-.95,0-1.68,0-2.21,0-.23,0-.41,0-.55s0-.18,0-.18a1.57,1.57,0,0,1,0,.2c0,.15,0,.33,0,.57,0,.51,0,1.24,0,2.17l-.06-.06,11-.06,7.78,0h8.77c-.06.07.16-.14-.14.15v-2.94l.15.15-19.52-.07-5.86,0-1.59,0h-.57Z" fill="#e1e1e1"/><path d="M376.07,206c0,.08-6.89.14-15.38.14s-15.37-.06-15.37-.14,6.88-.15,15.37-.15S376.07,205.91,376.07,206Z" fill="#e1e1e1"/><path d="M338.57,177.13l2.77,21.45h36V177.81H361L357.83,175H340.42A1.86,1.86,0,0,0,338.57,177.13Z" fill="#ececec"/><path d="M367.45,186.21c0,.08-3.95.15-8.81.15s-8.81-.07-8.81-.15,3.94-.15,8.81-.15S367.45,186.13,367.45,186.21Z" fill="#e1e1e1"/><path d="M367.45,188.32c0,.08-3.95.15-8.81.15s-8.81-.07-8.81-.15,3.94-.15,8.81-.15S367.45,188.24,367.45,188.32Z" fill="#e1e1e1"/><path d="M368.51,210c0,.09-4.31.15-9.64.15s-9.64-.06-9.64-.15,4.32-.14,9.64-.14S368.51,209.92,368.51,210Z" fill="#e1e1e1"/><path d="M410.55,410.77c0,.12-83.08.22-185.54.22s-185.56-.1-185.56-.22,83.06-.22,185.56-.22S410.55,410.65,410.55,410.77Z" fill="#1a2e35"/><path d="M270.14,237.69H204.4l-12.56,18.64-12.25-18.64H115a7.47,7.47,0,0,1-7.48-7.47V102.13A7.48,7.48,0,0,1,115,94.65H270.14a7.48,7.48,0,0,1,7.48,7.48V230.22A7.47,7.47,0,0,1,270.14,237.69Z" fill="#fafafa"/><path d="M270.14,237.69l.41,0a6.55,6.55,0,0,0,1.21-.17,7.4,7.4,0,0,0,4-2.43,7.28,7.28,0,0,0,1.58-3.1,7.41,7.41,0,0,0,.17-1c0-.34.05-.68,0-1v-2.23c0-3.08,0-6.64,0-10.65,0-16-.05-39.22-.07-67.87,0-14.33,0-30,0-46.87a7.32,7.32,0,0,0-5-7.13,8.77,8.77,0,0,0-3.16-.36H228.3l-59.44,0H115.25c-.34,0-.66,0-1,0s-.65.08-1,.17A7.4,7.4,0,0,0,109.87,97a7.32,7.32,0,0,0-1.91,3.42,15.56,15.56,0,0,0-.21,3.63v54.1c0,18.73,0,36.88,0,54.28q0,6.52,0,12.91v3.18a16.78,16.78,0,0,0,.14,3.11,7.31,7.31,0,0,0,3.42,4.84,7.22,7.22,0,0,0,2.84,1c1,.1,2,0,3.06.06h18.08l44.32,0h.09l0,.07L192,256.25h-.26q6.72-9.94,12.58-18.63l0-.06h.07l48.47.06,12.85,0,3.3,0h1.12s-.38,0-1.12,0l-3.3,0-12.85,0-48.47.06.11-.06q-5.85,8.68-12.54,18.65l-.13.19-.13-.19q-5.82-8.87-12.26-18.63l.14.07-44.32,0H117.19c-1,0-2,.05-3.11-.06a7.6,7.6,0,0,1-3-1,7.72,7.72,0,0,1-3.61-5.1,17.13,17.13,0,0,1-.15-3.19v-3.18q0-6.37,0-12.91c0-17.4,0-35.55,0-54.28V102.2a7.92,7.92,0,0,1,.22-1.88,7.65,7.65,0,0,1,5.65-5.66,7.18,7.18,0,0,1,1-.19c.35,0,.7,0,1,0h53.61l59.44,0h40.94a9.32,9.32,0,0,1,3.27.38,7.92,7.92,0,0,1,2.83,1.66,7.84,7.84,0,0,1,1.87,2.66,8.07,8.07,0,0,1,.59,3.17c0,16.85,0,32.54,0,46.87,0,28.65-.06,51.84-.07,67.87,0,4,0,7.57,0,10.65,0,.77,0,1.51,0,2.23,0,.35,0,.7,0,1.05a7.71,7.71,0,0,1-.18,1,7.51,7.51,0,0,1-5.69,5.56,7.15,7.15,0,0,1-1.22.15Z" fill="#1a2e35"/><path d="M173.61,173.42c0,1.66-1.24,2.69-3.23,2.69h-1.5v2h-1.72v-7.45h3.22C172.37,170.71,173.61,171.75,173.61,173.42Zm-1.74,0c0-.82-.53-1.3-1.59-1.3h-1.4v2.58h1.4C171.34,174.7,171.87,174.22,171.87,173.42Z" fill="#1a2e35"/><path d="M179.73,174.89v3.27h-1.55v-.71a1.89,1.89,0,0,1-1.75.8c-1.34,0-2.14-.75-2.14-1.74s.72-1.71,2.46-1.71h1.32c0-.71-.43-1.13-1.32-1.13a2.76,2.76,0,0,0-1.65.53l-.59-1.16a4.42,4.42,0,0,1,2.46-.69C178.72,172.35,179.73,173.16,179.73,174.89Zm-1.66,1.46v-.58h-1.14c-.78,0-1,.28-1,.67s.35.69.94.69A1.22,1.22,0,0,0,178.07,176.35Z" fill="#1a2e35"/><path d="M180.68,177.63l.55-1.19a3.92,3.92,0,0,0,2,.55c.76,0,1.05-.2,1.05-.52,0-.94-3.46,0-3.46-2.27,0-1.08,1-1.85,2.65-1.85a4.67,4.67,0,0,1,2.2.5l-.55,1.18a3.27,3.27,0,0,0-1.65-.42c-.74,0-1.06.23-1.06.53,0,1,3.46,0,3.46,2.29,0,1.06-1,1.82-2.71,1.82A4.91,4.91,0,0,1,180.68,177.63Z" fill="#1a2e35"/><path d="M186.32,177.63l.56-1.19a3.89,3.89,0,0,0,2,.55c.76,0,1-.2,1-.52,0-.94-3.46,0-3.46-2.27,0-1.08,1-1.85,2.65-1.85a4.67,4.67,0,0,1,2.2.5l-.55,1.18a3.27,3.27,0,0,0-1.65-.42c-.74,0-1.06.23-1.06.53,0,1,3.45,0,3.45,2.29,0,1.06-1,1.82-2.7,1.82A5,5,0,0,1,186.32,177.63Z" fill="#1a2e35"/><path d="M201.61,172.44l-2.07,5.72h-1.6l-1.29-3.55-1.33,3.55h-1.59l-2.07-5.72h1.57l1.35,3.87,1.4-3.87h1.41l1.36,3.87,1.39-3.87Z" fill="#1a2e35"/><path d="M201.8,175.3a3.15,3.15,0,1,1,3.15,2.95A3,3,0,0,1,201.8,175.3Zm4.61,0a1.47,1.47,0,1,0-1.46,1.58A1.45,1.45,0,0,0,206.41,175.3Z" fill="#1a2e35"/><path d="M212.75,172.35v1.53l-.37,0a1.41,1.41,0,0,0-1.53,1.6v2.7H209.2v-5.72h1.58v.75A2.31,2.31,0,0,1,212.75,172.35Z" fill="#1a2e35"/><path d="M219.51,170.27v7.89h-1.58v-.66a2.21,2.21,0,0,1-1.79.75,3,3,0,0,1,0-5.9,2.22,2.22,0,0,1,1.71.69v-2.77Zm-1.62,5a1.47,1.47,0,1,0-1.46,1.58A1.46,1.46,0,0,0,217.89,175.3Z" fill="#1a2e35"/><rect x="135.47" y="191.01" width="20.04" height="27.73" rx="5.48" fill="#ececec"/><rect x="183.31" y="191.01" width="19.5" height="27.73" rx="5.48" fill="#ececec"/><rect x="159.86" y="191.01" width="19.5" height="27.73" rx="5.48" fill="#ececec"/><rect x="206.64" y="191.01" width="20.05" height="27.73" rx="5.48" fill="#ececec"/><rect x="229.64" y="191.01" width="20.05" height="27.73" rx="5.48" fill="#ececec"/><path d="M148.07,204.14l2.15,1.16-1,1.61-2.16-1.28,0,2.38h-1.85l0-2.39-2.17,1.29-.94-1.61,2.14-1.16L142.19,203l.94-1.61,2.17,1.29,0-2.4h1.85l0,2.4,2.16-1.29,1,1.61Z" fill="#414042"/><path d="M171.43,204l2.15,1.16-1,1.62-2.16-1.28,0,2.38h-1.85l0-2.4-2.16,1.3-.95-1.62L167.7,204l-2.15-1.18.95-1.61,2.16,1.3,0-2.4h1.85l0,2.4,2.16-1.3,1,1.61Z" fill="#414042"/><path d="M195.36,204l2.14,1.16-1,1.62-2.16-1.28,0,2.38h-1.85l0-2.4-2.17,1.3-.94-1.62,2.14-1.16-2.14-1.18.94-1.61,2.17,1.3,0-2.4h1.85l0,2.4,2.16-1.3,1,1.61Z" fill="#414042"/><path d="M218.54,204l2.14,1.16-1,1.62-2.17-1.28,0,2.38h-1.85l0-2.4-2.16,1.3-.95-1.62L214.8,204l-2.15-1.18.95-1.61,2.16,1.3,0-2.4h1.85l0,2.4,2.17-1.3,1,1.61Z" fill="#414042"/><path d="M150.67,218.92H140.3a4.84,4.84,0,0,1-4.83-4.84V195.67a4.83,4.83,0,0,1,4.83-4.83h10.37a4.84,4.84,0,0,1,4.84,4.83v18.41A4.84,4.84,0,0,1,150.67,218.92ZM140.3,191.18a4.5,4.5,0,0,0-4.49,4.49v18.41a4.49,4.49,0,0,0,4.49,4.49h10.37a4.5,4.5,0,0,0,4.5-4.49V195.67a4.5,4.5,0,0,0-4.5-4.49Z" fill="#1a2e35"/><path d="M174.75,218.92H164.38a4.84,4.84,0,0,1-4.83-4.84V195.67a4.83,4.83,0,0,1,4.83-4.83h10.37a4.84,4.84,0,0,1,4.84,4.83v18.41A4.84,4.84,0,0,1,174.75,218.92Zm-10.37-27.74a4.5,4.5,0,0,0-4.49,4.49v18.41a4.49,4.49,0,0,0,4.49,4.49h10.37a4.5,4.5,0,0,0,4.5-4.49V195.67a4.5,4.5,0,0,0-4.5-4.49Z" fill="#1a2e35"/><path d="M198.17,218.92H187.8a4.84,4.84,0,0,1-4.84-4.84V195.67a4.84,4.84,0,0,1,4.84-4.83h10.37a4.84,4.84,0,0,1,4.84,4.83v18.41A4.84,4.84,0,0,1,198.17,218.92ZM187.8,191.18a4.5,4.5,0,0,0-4.49,4.49v18.41a4.49,4.49,0,0,0,4.49,4.49h10.37a4.49,4.49,0,0,0,4.49-4.49V195.67a4.5,4.5,0,0,0-4.49-4.49Z" fill="#1a2e35"/><path d="M221.85,218.92H211.48a4.84,4.84,0,0,1-4.83-4.84V195.67a4.84,4.84,0,0,1,4.83-4.83h10.37a4.84,4.84,0,0,1,4.84,4.83v18.41A4.84,4.84,0,0,1,221.85,218.92Zm-10.37-27.74a4.5,4.5,0,0,0-4.49,4.49v18.41a4.49,4.49,0,0,0,4.49,4.49h10.37a4.5,4.5,0,0,0,4.5-4.49V195.67a4.5,4.5,0,0,0-4.5-4.49Z" fill="#1a2e35"/><path d="M244.85,218.92H234.48a4.84,4.84,0,0,1-4.84-4.84V195.67a4.84,4.84,0,0,1,4.84-4.83h10.37a4.83,4.83,0,0,1,4.83,4.83v18.41A4.84,4.84,0,0,1,244.85,218.92Zm-10.37-27.74a4.5,4.5,0,0,0-4.5,4.49v18.41a4.5,4.5,0,0,0,4.5,4.49h10.37a4.49,4.49,0,0,0,4.49-4.49V195.67a4.5,4.5,0,0,0-4.49-4.49Z" fill="#1a2e35"/><path d="M245.22,211.55a34.14,34.14,0,0,1-5.56.22,34,34,0,0,1-5.55-.22,35.36,35.36,0,0,1,5.55-.22A35.55,35.55,0,0,1,245.22,211.55Z" fill="#414042"/><circle cx="193.49" cy="139.85" r="22.4" fill="#6d6e71"/><path d="M189.55,135.78h-.37v-2.1a4.37,4.37,0,1,1,8.73,0v1.71h-.37v-1.71a4,4,0,0,0-8,0Z" fill="#fff"/><path d="M199.05,150.38H187.94a1.84,1.84,0,0,1-1.85-1.84V137.43a1.85,1.85,0,0,1,1.85-1.84h11.11a1.85,1.85,0,0,1,1.84,1.84v11.11A1.84,1.84,0,0,1,199.05,150.38ZM187.94,136a1.47,1.47,0,0,0-1.47,1.47v11.11a1.47,1.47,0,0,0,1.47,1.47h11.11a1.46,1.46,0,0,0,1.46-1.47V137.43a1.46,1.46,0,0,0-1.46-1.47Z" fill="#fff"/><path d="M193.54,143.35a1.75,1.75,0,1,1,1.75-1.74A1.74,1.74,0,0,1,193.54,143.35Zm0-3.11a1.37,1.37,0,1,0,1.38,1.37A1.37,1.37,0,0,0,193.54,140.24Z" fill="#fff"/><rect x="193.3" y="143.08" width="0.37" height="3.15" fill="#fff"/><circle cx="262.6" cy="107.36" r="6.92" transform="translate(101.3 340.73) rotate(-77.59)" fill="#e1e1e1"/><path d="M260.36,109.81a.18.18,0,0,1-.15-.07.19.19,0,0,1,0-.29l4.48-4.48a.2.2,0,0,1,.3,0,.22.22,0,0,1,0,.3l-4.48,4.47A.21.21,0,0,1,260.36,109.81Z" fill="#fff"/><path d="M264.84,109.81a.18.18,0,0,1-.15-.07l-4.48-4.47a.21.21,0,0,1,.3-.3l4.48,4.48a.21.21,0,0,1,0,.29A.21.21,0,0,1,264.84,109.81Z" fill="#fff"/><polygon points="345.86 259.28 325.54 256.34 284.88 262.35 273.47 266.38 275.5 291.33 314.58 298.53 340.96 290.72 350.93 276.05 345.86 259.28" fill="#ffc19d"/><path d="M358.67,261.67l-27.55-5.74c-1,2.2-6.16,13.48-19,18.29a33.31,33.31,0,0,1-36.58-9.29l-17.44,5.59s-6.66,44.71.72,76.38c1.72,7.4,4,17.38,4,17.38l-2.36,46.28,128.92.21Z" fill="#009464"/><g opacity="0.3"><path d="M308.13,401.58c6.28-.16,12.07.37,18.34.22,7.53-.19,15.11-.37,22.54.86,5.57.91,11,2.61,16.57,3.49,7.6,1.2,15.71.77,22.48-2.89L387,397l-25.69-6.18Z"/></g><path d="M243.51,280.93c5.9-7.61,15.7-10.78,15.7-10.78l6.59,57.42-12.49,83.6L212.4,411S235,292,243.51,280.93Z" fill="#009464"/><path d="M356.68,261.25s27.54,2.2,37.42,47.32c4.47,20.4,10.12,44.32,11.74,60.39,1.18,11.66-5.15,29.91-16.77,31.4l-14.62,2a24.14,24.14,0,0,1-8.6-.32c-9.23-2.12-10.17-8.45-11.8-15.18l-4.26-13.47c-2.34-12.8,9.59-15.19,16.18-15.05l-4.91-58.44Z" fill="#009464"/><path d="M255.8,302.07a4.4,4.4,0,0,0-.13.63c-.07.46-.16,1.06-.27,1.82-.06.4-.12.84-.19,1.32s-.1,1-.16,1.57c-.12,1.13-.25,2.41-.31,3.84a93.88,93.88,0,0,0-.07,10,121.81,121.81,0,0,0,1.22,12.23c.63,4.31,1.43,8.39,2.23,12.08s1.61,7,2.29,9.76,1.29,5,1.71,6.54c.2.74.37,1.33.49,1.77a3.89,3.89,0,0,0,.2.61,2.73,2.73,0,0,0-.11-.63c-.11-.45-.24-1-.42-1.79l-1.56-6.57c-.65-2.78-1.43-6.09-2.2-9.78s-1.57-7.76-2.2-12.06-1.06-8.42-1.25-12.18-.19-7.16,0-10c0-1.43.15-2.71.24-3.84.05-.56.09-1.08.13-1.57s.1-.92.15-1.32c.08-.76.14-1.37.19-1.83A3.07,3.07,0,0,0,255.8,302.07Z" fill="#1a2e35"/><path d="M387.58,374.13a5.78,5.78,0,0,0-.22-1.14,17.89,17.89,0,0,0-1.07-3,20.22,20.22,0,0,0-16.16-11.77,17.94,17.94,0,0,0-3.15-.1,5.81,5.81,0,0,0-1.15.14c0,.1,1.65-.1,4.26.27A20.84,20.84,0,0,1,386,370.16,42.58,42.58,0,0,1,387.58,374.13Z" fill="#1a2e35"/><path d="M381.21,351.65a2,2,0,0,0-.67-.06,14.26,14.26,0,0,0-1.81.08,21.12,21.12,0,0,0-11,4.51,16,16,0,0,0-1.35,1.22c-.29.31-.45.49-.43.52s.75-.59,2-1.49a24.59,24.59,0,0,1,5.14-2.89,25,25,0,0,1,5.68-1.56C380.27,351.76,381.21,351.73,381.21,351.65Z" fill="#1a2e35"/><path d="M352.7,293.24a6,6,0,0,0,.07-1.21c0-.78.05-1.9.14-3.28a53.81,53.81,0,0,1,1.84-10.62,53,53,0,0,1,4-10c.64-1.23,1.19-2.21,1.58-2.87a5.12,5.12,0,0,0,.57-1.07,7.23,7.23,0,0,0-.71,1c-.45.64-1,1.6-1.71,2.82A47.82,47.82,0,0,0,354.32,278a48.37,48.37,0,0,0-1.72,10.73c-.05,1.39-.05,2.51,0,3.29A7,7,0,0,0,352.7,293.24Z" fill="#1a2e35"/><path d="M358,397.67s.47.57,1.5,1.42a13.82,13.82,0,0,0,5,2.4,26.83,26.83,0,0,0,8.29.73c3.15-.22,6.62-.59,10.23-1.13a51.79,51.79,0,0,0,10-2.3,12.78,12.78,0,0,0,3.67-2.44,19.82,19.82,0,0,0,2.56-2.92,26.92,26.92,0,0,0,2.81-4.88c.27-.61.47-1.09.59-1.42a2.42,2.42,0,0,1,.22-.49,2.12,2.12,0,0,1-.13.52c-.1.34-.28.83-.52,1.46a24.8,24.8,0,0,1-2.72,5,20,20,0,0,1-2.56,3,13.2,13.2,0,0,1-3.76,2.56,51.44,51.44,0,0,1-10.07,2.36c-3.62.54-7.09.89-10.26,1.1a26.36,26.36,0,0,1-8.4-.84,13.25,13.25,0,0,1-5.07-2.57,8.47,8.47,0,0,1-1.07-1.12A2.09,2.09,0,0,1,358,397.67Z" fill="#1a2e35"/><path d="M353.45,307.61c.12,0,3,11.25,6.49,25.18s6.17,25.26,6.05,25.29-3-11.25-6.48-25.18S353.33,307.64,353.45,307.61Z" fill="#1a2e35"/><path d="M349.94,371.24a4.27,4.27,0,0,1-.13-.93,14.17,14.17,0,0,1-.06-2.56,7.42,7.42,0,0,1,1.23-3.61,11,11,0,0,1,1.42-1.78,9.16,9.16,0,0,1,2-1.45,24.81,24.81,0,0,1,10.56-2.82,3.45,3.45,0,0,1,.94,0c0,.07-1.33.12-3.43.5a26.69,26.69,0,0,0-7.85,2.66,9.73,9.73,0,0,0-1.87,1.38,11.35,11.35,0,0,0-1.38,1.69,7.31,7.31,0,0,0-1.26,3.42,19.71,19.71,0,0,0-.08,2.52A3.56,3.56,0,0,1,349.94,371.24Z" fill="#1a2e35"/><path d="M294.26,369.66l.05,0Z" fill="#ffc19d"/><path d="M294.56,369.8l.11.05Z" fill="#ffc19d"/><path d="M294.31,369.68l.25.12Z" fill="#ffc19d"/><path d="M294.14,369.6l.12.06Z" fill="#ffc19d"/><path d="M268.28,393.36c2.21-4.18,19.49-15.21,19.49-15.21l-4.68-1.08-5.16,2.19a12.74,12.74,0,0,1-2.23,4.83c-1.9,2.71-5.12-.09-5.12-.09l2.18-10.46L283,367.39s9.61,1.47,11.16,2.21l4.1,3.75c1.8,1.41,7,7,8.41,7.14s46-9.86,46-9.86h0c6.11,4.84,9.33,14.46,10.3,21.39,0,0,1.09,3.41-.09,5.26l-54.75,4.3-11.6,3.2a81.81,81.81,0,0,1-9.53,3.28c-3.86.81-6.46-.43-6.56-2.57s2.89-2.37,2.89-2.37a58.73,58.73,0,0,0,7.46-3.28,13.1,13.1,0,0,0,4.21-4.62l-4.14.5s-8.79,6.1-12.09,7.89-4-1.5-4.23-2.5,9.88-10.92,9.88-10.92-9.65,5.95-11.38,7.45-4.31,1.94-4.86.94S266.07,397.54,268.28,393.36Z" fill="#ffc19d"/><path d="M294.67,369.85l.1,0Z" fill="#ffc19d"/><path d="M294.82,369.92Z" fill="#ffc19d"/><path d="M294.77,369.9l.05,0Z" fill="#ffc19d"/><path d="M315.85,394.33a2.06,2.06,0,0,0,.06-.68,3.88,3.88,0,0,0-.06-.79,5.58,5.58,0,0,0-.19-1.05,14.58,14.58,0,0,0-2.8-5.4,32.13,32.13,0,0,0-4.22-4.38,12.35,12.35,0,0,0-2-1.54,19.67,19.67,0,0,0,1.8,1.75,40.65,40.65,0,0,1,4.09,4.42,16,16,0,0,1,2.84,5.23C315.81,393.36,315.77,394.33,315.85,394.33Z" fill="#ff9c6a"/><path d="M288.16,377.83a5,5,0,0,0,2.95-.27,4.84,4.84,0,0,0,2.51-1.57c-.07-.09-1.13.69-2.64,1.19S288.16,377.71,288.16,377.83Z" fill="#ff9c6a"/><path d="M285.29,389.28a27.17,27.17,0,0,0,4.4-1.59,26.18,26.18,0,0,0,4.25-2,27.17,27.17,0,0,0-4.4,1.59A26.18,26.18,0,0,0,285.29,389.28Z" fill="#ff9c6a"/><path d="M294.56,395.13a11,11,0,0,0,2.25-.8,10.6,10.6,0,0,0,2.2-.94,5.42,5.42,0,0,0-2.34.56A5.58,5.58,0,0,0,294.56,395.13Z" fill="#ff9c6a"/><path d="M286.72,390a9.64,9.64,0,0,1,1.7,1.49,9.49,9.49,0,0,1,1,2c.05,0,.1-.27,0-.71a3.68,3.68,0,0,0-2-2.66C287,390,286.73,390,286.72,390Z" fill="#ff9c6a"/><path d="M282.66,383.65c-.05.11.7.52,1.2,1.39a11.52,11.52,0,0,1,.62,1.73,2.05,2.05,0,0,0-.27-1.93C283.63,383.84,282.68,383.54,282.66,383.65Z" fill="#ff9c6a"/><path d="M284,372.23c.05,0,.21-.16.33-.54a3,3,0,0,0-.69-2.86c-.28-.28-.51-.38-.54-.34a8.41,8.41,0,0,1,.87,1.77A7.15,7.15,0,0,1,284,372.23Z" fill="#ff9c6a"/><path d="M363.36,398.85a7.45,7.45,0,0,1-.07-1.26c0-.4,0-.9-.06-1.47s-.05-1.22-.13-1.94a43.92,43.92,0,0,0-2.39-11,39.54,39.54,0,0,0-2.6-5.61c-.5-.81-.94-1.6-1.45-2.28l-.7-1-.7-.88c-1.82-2.24-3.21-3.38-3.15-3.45a5.73,5.73,0,0,1,1,.79,11.67,11.67,0,0,1,1.07,1c.4.42.88.88,1.33,1.45l.73.88c.24.31.48.65.73,1,.53.68,1,1.47,1.5,2.28a37.33,37.33,0,0,1,2.66,5.67,40.05,40.05,0,0,1,2.29,11.1c.06.72,0,1.38.07,1.95s0,1.08,0,1.48A6.3,6.3,0,0,1,363.36,398.85Z" fill="#1a2e35"/><g opacity="0.3"><path d="M382.15,359.73a27.62,27.62,0,0,0-16.23-1.47h0a22.42,22.42,0,0,1,21.89,14.15c.4,1.06,1.18,2.3,2.29,2.13s1.42-1.45,1.42-2.49C391.53,366.58,387.19,361.84,382.15,359.73Z"/></g><g opacity="0.3"><path d="M355.84,310.18c-1.11,15.31,2.37,30.5,5.81,45.3a7,7,0,0,0,1,2.56,1.64,1.64,0,0,0,2.1.69c1.07-.65.93-2.52.62-3.91l-9.57-44"/></g><path d="M139.77,325.44l17.38,85.33H308a3,3,0,0,0,3-3h0a3,3,0,0,0-3-3H277.65l-16.12-79.36a3.3,3.3,0,0,0-3.19-2.64L143,321.48A3.3,3.3,0,0,0,139.77,325.44Z" fill="#e1e1e1"/><path d="M139.77,325.44s0-.09-.05-.26a3.06,3.06,0,0,1,0-.78,3.32,3.32,0,0,1,1.6-2.49,3.43,3.43,0,0,1,1-.4,5.68,5.68,0,0,1,1.18-.07l2.72,0,6.79.06,43.6.41,30.39.31,17,.17,8.93.1,4.56,0c.39,0,.76,0,1.17,0a3.49,3.49,0,0,1,1.17.34,3.45,3.45,0,0,1,1.65,1.74,5.49,5.49,0,0,1,.32,1.15L262,327c.16.77.31,1.54.47,2.31.32,1.54.63,3.1.95,4.66.64,3.12,1.28,6.29,1.93,9.49q2,9.6,4,19.65c2.72,13.38,5.55,27.29,8.46,41.63l-.2-.16h29.87a6,6,0,0,1,1.17.08,3.2,3.2,0,0,1,2.51,3.63,3.25,3.25,0,0,1-1.64,2.35,3.38,3.38,0,0,1-1.42.38H228l-70.84,0H157l0-.13c-5.31-26.23-9.63-47.56-12.63-62.35-1.48-7.39-2.64-13.14-3.43-17.05-.38-1.95-.68-3.43-.88-4.44s-.28-1.52-.28-1.52.12.51.33,1.51.52,2.49.92,4.43c.81,3.91,2,9.65,3.52,17,3,14.77,7.39,36.1,12.77,62.32l-.16-.13,70.84,0h80.13a2.81,2.81,0,0,0,.48-5.55,5.42,5.42,0,0,0-1.08-.06h-30l0-.17c-2.91-14.34-5.74-28.25-8.45-41.63q-2-10-4-19.65c-.65-3.21-1.29-6.37-1.93-9.5-.31-1.56-.63-3.11-.94-4.66-.16-.77-.31-1.54-.47-2.3l-.23-1.15a5.12,5.12,0,0,0-.29-1.09,3.21,3.21,0,0,0-1.48-1.56,3.24,3.24,0,0,0-1.05-.3c-.35,0-.75,0-1.13,0l-4.57-.05-8.93-.1-17-.2-30.4-.35L153,321.67l-6.79-.1-2.72,0a5,5,0,0,0-1.17.06,3.07,3.07,0,0,0-1,.38,3.27,3.27,0,0,0-1.6,2.43A3.91,3.91,0,0,0,139.77,325.44Z" fill="#1a2e35"/><path d="M209.29,364.49a5,5,0,1,1-5-5A5,5,0,0,1,209.29,364.49Z" fill="#fff"/><path d="M139.91,326.13a5,5,0,0,1,.52,0h7.39l21.57.1,71.17.5,10.29.09,2.53,0a6.34,6.34,0,0,1,1.29.08,3.38,3.38,0,0,1,1.23.49,3.65,3.65,0,0,1,1.53,2.08c.19.83.33,1.62.49,2.43,1.28,6.43,2.51,12.63,3.68,18.54,2.34,11.81,4.44,22.45,6.21,31.39S271,398,272,403l1.11,5.76c.12.65.21,1.14.28,1.5s.08.51.08.51-.05-.17-.12-.51-.19-.84-.32-1.49c-.28-1.33-.67-3.26-1.19-5.74l-4.27-21.15c-1.8-8.93-3.93-19.56-6.3-31.37-1.18-5.9-2.41-12.1-3.7-18.53-.16-.79-.31-1.63-.49-2.4a3.17,3.17,0,0,0-1.35-1.84,3.25,3.25,0,0,0-1.09-.44,6.74,6.74,0,0,0-1.21-.07l-2.53,0-10.29-.08-71.17-.62-21.57-.24-5.87-.08-1.52,0Z" fill="#1a2e35"/><path d="M341.39,196.53a55.8,55.8,0,0,1-17.83,42.17l-8-23.08" fill="#1a2e35"/><path d="M281.32,150.61c6.84-3.74,15.1-4.28,22.75-2.75s14.76,5,21.51,8.9c3.79,2.19,7.56,4.59,10.28,8,5,6.25,9.88,16.51,10.36,24.48.39,6.44-2.08,22.57-4.81,28.43-2.49,5.37-14.19,9.45-20,10.78l-53-61.61A26.8,26.8,0,0,1,281.32,150.61Z" fill="#1a2e35"/><path d="M272.18,158.92l12.7-2.27c-6.94,16.53-8.82,54.33-12.79,71.82-4.68-6.79-15.55-27.48-15-35.71S257.1,157.51,272.18,158.92Z" fill="#1a2e35"/><path d="M332.39,186.44c-1.52-5.22-3.16-11.77-7.75-15.62a21.53,21.53,0,0,0-8.56-4.36L286.83,159c-12.64-1.36-21.08,14.18-21.91,26.87-.92,14.09-1.48,29,.16,39.48,3.32,21.16,19.52,23.89,19.52,23.89s0,10.06,0,16.24l14.58-.45,26.75-2.61,6.53-75.73Z" fill="#ffc19d"/><path d="M271.28,201.85a2.7,2.7,0,0,0,2.61,2.74,2.6,2.6,0,0,0,2.8-2.44,2.72,2.72,0,0,0-2.61-2.74A2.58,2.58,0,0,0,271.28,201.85Z" fill="#1a2e35"/><path d="M268.1,194.15c.33.36,2.39-1.16,5.31-1.14s5,1.47,5.37,1.12c.16-.16-.18-.8-1.11-1.48a7.49,7.49,0,0,0-4.3-1.34,7.19,7.19,0,0,0-4.23,1.36C268.24,193.36,267.93,194,268.1,194.15Z" fill="#1a2e35"/><path d="M296.72,201.85a2.7,2.7,0,0,0,2.61,2.74,2.6,2.6,0,0,0,2.8-2.44,2.72,2.72,0,0,0-2.61-2.74A2.58,2.58,0,0,0,296.72,201.85Z" fill="#1a2e35"/><path d="M295.82,194.15c.33.36,2.39-1.16,5.31-1.14s5.05,1.47,5.37,1.12c.16-.16-.18-.8-1.12-1.48a7.44,7.44,0,0,0-4.3-1.34,7.18,7.18,0,0,0-4.22,1.36C296,193.36,295.65,194,295.82,194.15Z" fill="#1a2e35"/><path d="M286.69,217.08c0-.17-1.8-.49-4.74-.87-.74-.08-1.45-.23-1.57-.74a3.74,3.74,0,0,1,.5-2.2c.71-1.81,1.44-3.7,2.22-5.67,3.08-8.08,5.31-14.72,5-14.84s-3.09,6.33-6.16,14.4c-.75,2-1.45,3.89-2.13,5.7a4.34,4.34,0,0,0-.39,2.93,1.85,1.85,0,0,0,1.22,1.09,4.84,4.84,0,0,0,1.27.18C284.84,217.22,286.68,217.24,286.69,217.08Z" fill="#1a2e35"/><path d="M312.65,241.71s-6.88,14.53-28,12.5v-5A53.33,53.33,0,0,0,312.65,241.71Z" fill="#ff9c6a"/><path d="M296.73,183.61c.29.79,3.2.42,6.62.84s6.2,1.36,6.65.65c.21-.34-.27-1.09-1.39-1.86a11,11,0,0,0-4.92-1.73,11.17,11.17,0,0,0-5.19.59C297.24,182.61,296.61,183.23,296.73,183.61Z" fill="#1a2e35"/><path d="M269.05,185.23c.51.66,2.52,0,4.94,0s4.47.46,4.94-.24c.21-.33-.11-1-1-1.63a7.18,7.18,0,0,0-8,.23C269.11,184.22,268.82,184.9,269.05,185.23Z" fill="#1a2e35"/><path d="M270.67,166.55c1.29-3.18,4.78-5.09,8.21-5.26a18,18,0,0,1,9.76,2.84c12.59,7.28,19.07,24.86,31.51,32.4,3.06,1.85,7.05.15,9.65,2.61s4.29,6.37,2.85,9.65a29.71,29.71,0,0,0,4.32-7.31,10,10,0,0,0-.35-8.24c-1.08-1.87-3-3.29-3.5-5.38-.46-1.84.27-3.76.19-5.65a12.32,12.32,0,0,0-1.94-5.4c-4.87-8.62-11.58-16.42-20.22-21.27a35.76,35.76,0,0,0-18.56-4.8,27.42,27.42,0,0,0-17.66,7c-2.78,2.6-5.71,5.28-4.26,8.8" fill="#1a2e35"/><path d="M329.5,201.76c.22-.61,11.25-4.59,11.4,7.14.14,11.39-11.36,9.14-11.38,8.82S329.5,201.76,329.5,201.76Z" fill="#ffc19d"/><path d="M333,213.37c.05,0,.2.14.53.29a2,2,0,0,0,1.49,0c1.2-.45,2.19-2.37,2.23-4.42a6.47,6.47,0,0,0-.59-2.84,2.28,2.28,0,0,0-1.5-1.51,1,1,0,0,0-1.17.56c-.15.32-.07.54-.13.56s-.25-.19-.16-.66a1.21,1.21,0,0,1,.44-.71,1.43,1.43,0,0,1,1.09-.3,2.78,2.78,0,0,1,2.09,1.74,6.79,6.79,0,0,1,.72,3.17c-.05,2.3-1.21,4.46-2.85,5a2.14,2.14,0,0,1-1.82-.29C333,213.64,333,213.39,333,213.37Z" fill="#ff9c6a"/><path d="M334,195.9a3.38,3.38,0,0,1-.69-.38c-.44-.28-1.11-.65-1.91-1.21a39.93,39.93,0,0,1-6.15-5.6,111.19,111.19,0,0,1-7.52-9.77,90.13,90.13,0,0,0-9.4-11.71,35.67,35.67,0,0,0-6.07-4.79,29.35,29.35,0,0,0-6.55-3A32.47,32.47,0,0,0,283.67,158a31,31,0,0,0-8.08,1.59c-.94.28-1.63.6-2.11.78a4,4,0,0,1-.74.26,4.75,4.75,0,0,1,.7-.36,19.42,19.42,0,0,1,2.08-.87,29.67,29.67,0,0,1,8.13-1.76A32.16,32.16,0,0,1,295.89,159a29.56,29.56,0,0,1,6.67,3,35.94,35.94,0,0,1,6.16,4.86,87.28,87.28,0,0,1,9.43,11.8,115.34,115.34,0,0,0,7.41,9.8,41.12,41.12,0,0,0,6,5.68c.78.59,1.43,1,1.85,1.29A6.31,6.31,0,0,1,334,195.9Z" fill="#375a64"/><path d="M331.16,199.13c.18,3.11.33,6.39-1.11,9.16s-5.07,4.64-7.77,3.1c-2.21-1.26-2.87-4.09-3.24-6.6-1.08-7.26-1.58-14.59-2.72-21.84Z" fill="#1a2e35"/><path d="M273.47,161.13c0,.07,1-.19,2.84-.24a19.53,19.53,0,0,1,7.53,1.37,24.81,24.81,0,0,1,4.73,2.44,51.78,51.78,0,0,1,4.87,3.72A58.57,58.57,0,0,1,303,178.7c1.44,2,2.73,4.12,4.11,6.05a28.86,28.86,0,0,0,4.57,5.14,50.58,50.58,0,0,0,9.63,6.44c2.91,1.54,5.35,2.62,7,3.37l1.95.83a3,3,0,0,0,.7.24,4.27,4.27,0,0,0-.65-.36l-1.9-.94c-1.64-.82-4.05-2-6.92-3.54a53,53,0,0,1-9.45-6.48,29.3,29.3,0,0,1-4.45-5.06c-1.36-1.91-2.64-4-4.1-6.06A57.3,57.3,0,0,0,293.82,168a47.91,47.91,0,0,0-5-3.72,24.28,24.28,0,0,0-4.85-2.41,18.84,18.84,0,0,0-7.71-1.2,13.18,13.18,0,0,0-2.1.29A3.41,3.41,0,0,0,273.47,161.13Z" fill="#375a64"/><path d="M331.48,192.09a5.42,5.42,0,0,0,1,.68l2.88,1.69,1,.56a3,3,0,0,0,1.25.41,1.12,1.12,0,0,0,.77-.18,1,1,0,0,0,.43-.75,2.57,2.57,0,0,0-.54-1.44l-3.35-5.36-.45.42a12,12,0,0,0,7.74,2.3,3.47,3.47,0,0,0,1-.17,1.41,1.41,0,0,0,.88-.77,1.23,1.23,0,0,0-.19-1.15,4.63,4.63,0,0,0-.65-.72,24,24,0,0,1-3.88-4.89,39.42,39.42,0,0,1-2.46-5.25,5.91,5.91,0,0,0,.35,1.54A21.66,21.66,0,0,0,339,183a22.83,22.83,0,0,0,3.86,5.08c.42.41.85.87.68,1.23s-.78.53-1.38.54a11.5,11.5,0,0,1-7.33-2.19l-1.36-1,.91,1.41,3.42,5.32a2.26,2.26,0,0,1,.48,1.12c0,.32-.29.51-.66.48a5.88,5.88,0,0,1-2-.84l-3-1.53A5.2,5.2,0,0,0,331.48,192.09Z" fill="#375a64"/><path d="M299.68,222.73c-.14.42-2.89-.66-5.77.91s-3.74,4.62-4.13,4.49c-.19,0-.28-.86.18-2.11a7.34,7.34,0,0,1,3.29-3.81,6.43,6.43,0,0,1,4.77-.59C299.21,222,299.77,222.55,299.68,222.73Z" fill="#1a2e35"/></svg>