<svg width="148" height="173" viewBox="0 0 148 173" fill="none" xmlns="http://www.w3.org/2000/svg">
<path opacity="0.08" fill-rule="evenodd" clip-rule="evenodd" d="M13.581 172.61C9.64787 172.492 5.73187 172.323 1.83405 172.105L1.9367 167.998H13.4657L13.581 172.61ZM34.652 172.764C32.2639 172.801 29.8698 172.819 27.4699 172.819C24.8317 172.819 22.2005 172.797 19.5766 172.752L19.4577 167.998H34.652V172.764ZM46.6302 172.421C44.6383 172.504 42.6419 172.574 40.6411 172.631V105.113H46.6302V172.421ZM58.6083 171.763C56.6168 171.899 54.6204 172.022 52.6192 172.132V117.091H100.532V166.912C98.5418 167.239 96.5454 167.553 94.5427 167.854V157.218C94.5581 150.783 93.1183 144.428 90.3311 138.629C87.5438 132.829 83.4811 127.735 78.4471 123.727C77.916 123.302 77.2559 123.07 76.5755 123.07C75.8951 123.07 75.235 123.302 74.7039 123.727C69.6699 127.735 65.6072 132.829 62.8199 138.629C60.0327 144.428 58.5929 150.783 58.6083 157.218V171.763ZM88.5536 168.711C80.659 169.786 72.6703 170.657 64.5973 171.315V157.218C64.5846 152.097 65.6438 147.03 67.7067 142.343C69.7697 137.656 72.7907 133.453 76.5755 130.004C80.3603 133.453 83.3813 137.656 85.4442 142.343C87.5071 147.03 88.5663 152.097 88.5536 157.218V168.711ZM112.51 164.771C110.52 165.156 108.524 165.527 106.521 165.885V105.113H112.51V164.771ZM133.892 160.069C131.173 160.741 128.439 161.388 125.69 162.009H118.499V117.091H134.969L133.892 160.069ZM147.729 117.091V156.399C145.141 157.133 142.539 157.844 139.922 158.532L140.961 117.091H147.729ZM147.729 84.1513V111.102H141.111L141.784 84.1513H147.729ZM147.729 72.1731V78.1622H141.934L142.084 72.1731H147.729ZM147.729 61.0948V66.184H142.234L142.306 63.2613C142.306 62.4274 142.637 61.6277 143.226 61.038C143.816 60.4483 144.616 60.1171 145.45 60.1171C146.284 60.1171 147.083 60.4483 147.673 61.038C147.692 61.0567 147.71 61.0757 147.729 61.0948ZM147.729 45.2223V54.736H142.455V45.2223H147.729ZM79.57 20.8408V27.4078H73.5809V20.8408C71.5325 20.3259 69.6577 19.2757 68.1488 17.7976C66.6399 16.3195 65.5512 14.4669 64.9941 12.4295C64.4371 10.392 64.4318 8.24313 64.9788 6.20298C65.5257 4.16284 66.6054 2.30482 68.1069 0.819336L72.3412 5.05361C71.2184 6.17673 70.5877 7.69979 70.5877 9.28788C70.5877 10.876 71.2184 12.399 72.3412 13.5222C73.4817 14.6117 74.9982 15.2196 76.5755 15.2196C78.1527 15.2196 79.6693 14.6117 80.8098 13.5222L85.044 17.7564C83.5305 19.2589 81.6392 20.3245 79.57 20.8408ZM4.70665 45.2223H10.6957V54.736H4.70665V45.2223ZM-7.27148 162.009H-3.90563L-4.05535 167.998H-7.27148V162.009ZM-2.63295 111.102H-7.27148V117.091H-2.78268L-2.63295 111.102ZM-7.27148 78.1622H-1.80646L-1.95918 84.1512H-7.27148V78.1622ZM-1.507 66.1841H-7.27148V72.1731H-1.65673L-1.507 66.1841ZM17.0591 72.1731H22.6739V66.1841H16.9094L17.0591 72.1731ZM22.6739 84.1512H17.3586L17.2088 78.1622H22.6739V84.1512ZM34.652 99.1239H28.6629V105.113H34.652V99.1239ZM124.488 99.1239H118.499V105.113H124.488V99.1239ZM130.477 78.1622H135.942L135.789 84.1512H130.477V78.1622ZM136.242 66.1841H130.477V72.1731H136.092L136.242 66.1841ZM41.5182 94.0119C42.0798 93.4504 42.8414 93.1349 43.6356 93.1349C44.4298 93.1349 45.1915 93.4504 45.7531 94.0119C46.3147 94.5735 46.6302 95.3352 46.6302 96.1294V99.1239H40.6411V96.1294C40.6411 95.3352 40.9566 94.5735 41.5182 94.0119ZM11.3665 84.1513H4.03587L3.3621 111.102H12.0403L11.3665 84.1513ZM11.067 72.1731H4.33533L4.18561 78.1622H11.2168L11.067 72.1731ZM19.308 162.009H34.652V117.091H18.182L19.308 162.009ZM22.6738 123.08H28.6629V129.069H22.6738V123.08ZM3.21238 117.091H12.19L13.3159 162.009H2.08643L3.21238 117.091ZM10.8455 63.2613C10.8455 62.4274 10.5142 61.6277 9.92452 61.038C9.33485 60.4483 8.5351 60.1171 7.70119 60.1171C6.86728 60.1171 6.06752 60.4483 5.47786 61.038C4.8882 61.6277 4.55693 62.4274 4.55693 63.2613L4.48506 66.184H10.9173L10.8455 63.2613ZM58.6212 40.1179C63.5589 35.6998 69.9497 33.2531 76.5755 33.2442C83.2012 33.2531 89.592 35.6998 94.5297 40.1179C99.4675 44.5359 102.607 50.6164 103.35 57.2004H49.8013C50.5441 50.6164 53.6835 44.5359 58.6212 40.1179ZM107.398 94.0119C107.96 93.4504 108.721 93.1349 109.515 93.1349C110.31 93.1349 111.071 93.4504 111.633 94.0119C112.194 94.5735 112.51 95.3352 112.51 96.1294V99.1239H106.521V96.1294C106.521 95.3352 106.836 94.5735 107.398 94.0119ZM112.51 63.1896H40.6411V69.1786H112.51V63.1896ZM46.6301 75.1676V87.6968C48.3757 88.3139 49.8879 89.4553 50.96 90.9647C52.032 92.4742 52.6115 94.278 52.6192 96.1294V99.1239H58.6083V105.113H52.6192V111.102H64.5973V105.838C64.5856 101.415 65.4511 97.0341 67.1437 92.9482C68.8364 88.8624 71.3225 85.1528 74.4583 82.0341C75.0199 81.4727 75.7814 81.1574 76.5755 81.1574C77.3695 81.1574 78.1311 81.4727 78.6926 82.0341C81.8284 85.1528 84.3146 88.8624 86.0072 92.9482C87.6999 97.0341 88.5654 101.415 88.5536 105.838V111.102H100.532V105.113H94.5427V99.1239H100.532V96.1294C100.539 94.278 101.119 92.4742 102.191 90.9647C103.263 89.4553 104.775 88.3139 106.521 87.6968V75.1676H46.6301ZM58.6083 87.1458H52.6192V81.1567H58.6083V87.1458ZM100.532 87.1458H94.5427V81.1567H100.532V87.1458ZM130.477 123.08H124.488V129.069H130.477V123.08ZM88.5536 123.08H94.5427V129.069H88.5536V123.08ZM58.6083 123.08H64.5974V129.069H58.6083V123.08ZM70.5865 105.841C70.5695 99.5939 72.682 93.5279 76.5755 88.643C80.4684 93.5271 82.5809 99.592 82.5646 105.838V111.102H70.5865V105.841Z" fill="white"/>
</svg>
