<svg xmlns="http://www.w3.org/2000/svg" viewBox="0 0 450 450"><g id="Layer_2" data-name="Layer 2"><path d="M410.55,401.77c0,.12-83.08.22-185.54.22s-185.56-.1-185.56-.22,83.06-.22,185.56-.22S410.55,401.65,410.55,401.77Z" fill="#1a2e35"/></g><g id="Layer_1" data-name="Layer 1"><path d="M201.83,190.84a1.23,1.23,0,0,1,0-.18v-.54c0-.48,0-1.16,0-2,0-1.79,0-4.35-.07-7.59l.12.12-39.1.08.2-.2h0v5.23c0,1.73,0,3.43,0,5.09l-.19-.19,27.86.09,8.23,0,2.22,0h.79l-.18,0h-.56l-2.18,0-8.18.06-28,.09h-.2V180.52h0l.2-.2,39.1.08H202v.12c0,3.27,0,5.86-.07,7.66,0,.86,0,1.53,0,2,0,.21,0,.38,0,.51A.79.79,0,0,1,201.83,190.84Z" fill="#e1e1e1"/><path d="M277,82.65s0-.06,0-.18v-.53q0-.73,0-2c0-1.79,0-4.35-.07-7.59l.13.12-39.1.08c.08-.09-.2.2.19-.2h0V82.65l-.2-.19,27.87.09,8.22,0,2.23,0H277l-.19,0h-.55l-2.19,0-8.18.06-28,.09h-.19V77.57c0-.87,0-1.74,0-2.61V72.33h0c.4-.4.12-.11.21-.2l39.1.08h.12v.12c0,3.27-.05,5.86-.07,7.66q0,1.29,0,2c0,.21,0,.38,0,.51S277,82.66,277,82.65Z" fill="#e1e1e1"/><path d="M422,237.61a1.7,1.7,0,0,1,0-.19v-.53q0-.73,0-2c0-1.78,0-4.35-.07-7.59l.12.13-39.1.07.2-.2h0v5.24c0,1.73,0,3.43,0,5.09l-.19-.2,27.86.09,8.23.06,2.22,0,.58,0a.67.67,0,0,1,.21,0h-.74l-2.18,0-8.18.05-28,.09h-.2V227.28h0l.2-.2,39.1.08h.12v.12c0,3.27-.05,5.86-.07,7.67,0,.85,0,1.52,0,2l0,.51A1,1,0,0,1,422,237.61Z" fill="#e1e1e1"/><path d="M427.34,227.26a1.49,1.49,0,0,1,0-.19l0-.55,0-2.07c0-1.82,0-4.38-.08-7.53l.14.14-23.49.06.2-.2h0v5.31c0,1.73,0,3.41,0,5l-.19-.19,16.8.09,4.9.06,1.32,0,.47,0a2.11,2.11,0,0,1-.42,0l-1.29,0-4.85.05-16.93.09h-.19v-.19c0-1.6,0-3.28,0-5v-5.31h0l.2-.2,23.49.06h.15v.14c0,3.19-.06,5.78-.08,7.61,0,.86,0,1.54,0,2A5.56,5.56,0,0,1,427.34,227.26Z" fill="#e1e1e1"/><path d="M96.18,362.45l-6.71,2.88.46-39.71a10,10,0,0,0-3.17-8.13c-10.77-12.25-26.84-3.36-27,9.06L59.37,362,52.86,362l.64-37.13c0-4.18,3.3-11.44,6.58-14,18.13-14.37,36.68.47,36.51,16.17Z" fill="#f5f5f5"/><path d="M96.18,362.45v-.71c0-.47,0-1.16,0-2.06,0-1.81,0-4.47.06-7.89s.07-7.61.11-12.47c0-2.42,0-5,.08-7.77s.25-5.68-.32-8.68a21.09,21.09,0,0,0-3.73-8.71c-.25-.33-.49-.67-.75-1l-.84-1A20.66,20.66,0,0,0,89,310.42c-.31-.3-.68-.53-1-.81a12,12,0,0,0-1.06-.77,19.37,19.37,0,0,0-2.3-1.33,22,22,0,0,0-5.12-1.83l-1.37-.23-.69-.11c-.23,0-.47,0-.7,0l-1.41-.09c-.47,0-1,0-1.42.05a21.36,21.36,0,0,0-11,3.66,21.56,21.56,0,0,0-9.34,15.54c-.18,2.14-.13,4.33-.17,6.53-.1,8.81-.2,17.92-.31,27.26,0,1.24,0,2.49,0,3.72l-.15-.15,6.52.07-.16.15q.12-10.59.24-20.67c0-3.35.08-6.66.12-9.91,0-1.63,0-3.24.05-4.84a16.6,16.6,0,0,1,.79-4.71,15.34,15.34,0,0,1,5.39-7.42c.31-.21.6-.46.93-.65l1-.57a14.33,14.33,0,0,1,2-.9,16.12,16.12,0,0,1,2.13-.61c.36-.07.73-.11,1.09-.16l.54-.08.54,0a15.28,15.28,0,0,1,4.28.36,16,16,0,0,1,3.91,1.49A15.46,15.46,0,0,1,88,318.85a15.81,15.81,0,0,1,1.56,3.5,15.38,15.38,0,0,1,.6,3.65c0,.31,0,.61,0,.91v.89l0,1.77c0,1.16,0,2.3,0,3.42q-.09,6.72-.16,12.31c-.1,7.41-.18,13.22-.23,17.08l0-.05,4.92.08,1.2,0H94.61l-5,0h0v0c0-3.86.09-9.67.15-17.09,0-3.71.08-7.82.12-12.3,0-1.12,0-2.26,0-3.43,0-.58,0-1.17,0-1.76v-.89l0-.9a15.57,15.57,0,0,0-.6-3.6,15.34,15.34,0,0,0-7.19-8.85,15.32,15.32,0,0,0-3.84-1.46,14.72,14.72,0,0,0-4.2-.35l-.54,0-.53.08c-.35,0-.71.09-1.07.16a16.68,16.68,0,0,0-4.11,1.48l-1,.57c-.33.18-.61.43-.92.64A15.11,15.11,0,0,0,60.69,322a16.33,16.33,0,0,0-.77,4.63c0,1.6,0,3.21-.05,4.83,0,3.25-.08,6.56-.11,9.91-.08,6.71-.15,13.62-.23,20.67v.16h-.15l-6.52-.07H52.7V362c0-1.24,0-2.48,0-3.73.1-9.33.21-18.45.31-27.25,0-2.21,0-4.38.18-6.56a23.25,23.25,0,0,1,1.62-6.23,23.58,23.58,0,0,1,3.29-5.38,23.22,23.22,0,0,1,4.57-4.13A21.57,21.57,0,0,1,73.86,305c.48,0,1-.05,1.44,0l1.64.1.9.1,1.37.23.63.13a21.79,21.79,0,0,1,4.87,1.78A21.28,21.28,0,0,1,87,308.63a10.55,10.55,0,0,1,1.07.79c.35.27.71.52,1,.81A21.22,21.22,0,0,1,91,312.05l.85,1c.26.33.5.68.75,1a21.37,21.37,0,0,1,3.76,8.8c.56,3,.27,6,.29,8.74s-.07,5.37-.1,7.8c-.07,4.86-.13,9.05-.18,12.48s-.09,6.07-.11,7.87c0,.89,0,1.58,0,2S96.18,362.45,96.18,362.45Z" fill="#e1e1e1"/><path d="M45.14,339.13h57.53a3.74,3.74,0,0,1,3.74,3.74v42.79a3.4,3.4,0,0,1-3.4,3.4H45.14a0,0,0,0,1,0,0V339.13A0,0,0,0,1,45.14,339.13Z" transform="translate(4.14 -0.84) rotate(0.65)" fill="#e1e1e1"/><path d="M46.41,339.07H95.13a4.06,4.06,0,0,1,4.06,4.06V384a5,5,0,0,1-5,5H46.55a4.2,4.2,0,0,1-4.2-4.2V343.14a4.06,4.06,0,0,1,4.06-4.06Z" transform="translate(4.14 -0.78) rotate(0.65)" fill="#ececec"/><path d="M78.72,359.73a7,7,0,1,0-9,6.58l-4.66,9.56,12,.36-3.56-9.88A7,7,0,0,0,78.72,359.73Z" fill="#e1e1e1"/><path d="M99,384.64c-.09,0,0-8.7.15-19.42s.37-19.42.45-19.42,0,8.7-.15,19.43S99.08,384.64,99,384.64Z" fill="#fafafa"/><path d="M86.32,340.76c0,.09-7.65.17-17.09.19s-17.09,0-17.09-.12,7.65-.17,17.09-.19S86.32,340.68,86.32,340.76Z" fill="#fff"/><path d="M64.51,363.32s-.13-.14-.29-.43a7.21,7.21,0,0,1-.52-1.33,7.79,7.79,0,0,1,2.86-8.42,6.62,6.62,0,0,1,1.22-.73,1.59,1.59,0,0,1,.49-.18s-.66.34-1.58,1.08A8.4,8.4,0,0,0,64.1,357a8.3,8.3,0,0,0-.19,4.51C64.18,362.65,64.56,363.3,64.51,363.32Z" fill="#fff"/><path d="M67.23,366.66c0,.07-.46-.1-.92-.39s-.8-.58-.75-.65.45.11.91.39S67.27,366.59,67.23,366.66Z" fill="#fff"/><path d="M73,306.81s-.42.06-1.17.15a19.83,19.83,0,0,0-3.15.67,18.78,18.78,0,0,0-13.27,15.05,19.81,19.81,0,0,0-.27,3.2c0,.76,0,1.19,0,1.19s0-.1,0-.3-.06-.5-.07-.88a17.52,17.52,0,0,1,.18-3.24,18.49,18.49,0,0,1,13.42-15.22,17.12,17.12,0,0,1,3.19-.59c.38,0,.68,0,.88,0A.94.94,0,0,1,73,306.81Z" fill="#fff"/><path d="M54.86,332.45a5.76,5.76,0,0,1-.11-1.82,5.34,5.34,0,0,1,.19-1.81,5.85,5.85,0,0,1,.11,1.82A5.34,5.34,0,0,1,54.86,332.45Z" fill="#fff"/><rect x="377.18" y="63.31" width="39.1" height="10.34" fill="#f5f5f5"/><path d="M399.75,84.55a.86.86,0,0,1,0-.19v-.53q0-.73,0-2c0-1.78,0-4.35-.06-7.59l.12.13-39.1.07c.08-.08-.2.2.19-.2h0V84.55l-.2-.2,27.87.09,8.22.06,2.23,0,.58,0H399l-2.18,0-8.18.06-28,.08h-.19V74.22h0c.39-.39.11-.11.2-.19l39.1.07h.12v.12c0,3.27-.05,5.86-.07,7.67q0,1.29,0,2c0,.2,0,.37,0,.5S399.75,84.55,399.75,84.55Z" fill="#e1e1e1"/><rect x="154.19" y="268.94" width="39.1" height="10.34" fill="#f5f5f5"/><path d="M176.76,290.18a1.49,1.49,0,0,1,0-.19v-.53c0-.48,0-1.16,0-2,0-1.79,0-4.36-.07-7.59l.12.12-39.1.08.2-.2h0v5.25c0,1.73,0,3.43,0,5.09l-.19-.19,27.86.08,8.23.06,2.22,0h.79s-.06,0-.18,0l-.56,0-2.18,0-8.18.06-28,.09h-.19V279.84h0l.2-.2,39.1.08h.12v.12c0,3.26,0,5.86-.06,7.66q0,1.29,0,2c0,.21,0,.37,0,.51S176.77,290.18,176.76,290.18Z" fill="#e1e1e1"/><path d="M326.87,372.38a.63.63,0,0,1,0-.19l0-.53q0-.74,0-2c0-1.78,0-4.35-.06-7.59l.12.12-39.1.08.2-.2h0v5.24c0,1.72,0,3.42,0,5.09l-.19-.2,27.86.09,8.23.05,2.22,0h.58l.21,0h-.74l-2.18,0-8.18.05-28,.09h-.2V362.05h0l.2-.2,39.1.08H327V362c0,3.27-.05,5.86-.07,7.66q0,1.29,0,2c0,.21,0,.38,0,.51A1.15,1.15,0,0,1,326.87,372.38Z" fill="#e1e1e1"/><rect x="198.87" y="205.22" width="182.44" height="106.91" fill="#fff"/><path d="M381.31,312.13c0-.75-.08-43.46-.19-106.91l.19.09H198.87l.21-.1c0,39.66,0,76.48,0,106.91l-.17-.08,182.44.08-182.44.08h-.18v-.08c0-30.43,0-67.25,0-106.91v-.09H381.5v.08C381.38,268.67,381.31,311.38,381.31,312.13Z" fill="#1a2e35"/><path d="M271.55,260.58h-1.72v3h-3.15V252.39h5.1c3,0,5,1.57,5,4.12a3.7,3.7,0,0,1-2.18,3.53l2.41,3.5h-3.38Zm0-5.71h-1.76v3.27h1.76c1.3,0,2-.61,2-1.63S272.89,254.87,271.59,254.87Z" fill="#1a2e35"/><path d="M287.11,260h-6.28a2,2,0,0,0,2.12,1.39,2.76,2.76,0,0,0,2-.75l1.6,1.65a4.66,4.66,0,0,1-3.68,1.41c-3.08,0-5.07-1.9-5.07-4.48a4.46,4.46,0,0,1,4.75-4.45,4.33,4.33,0,0,1,4.62,4.48C287.16,259.46,287.13,259.75,287.11,260Zm-6.33-1.59h3.54a1.8,1.8,0,0,0-3.54,0Z" fill="#1a2e35"/><path d="M287.88,262.79l.91-2.07a6,6,0,0,0,3,.8c1,0,1.35-.22,1.35-.59,0-1.16-5.1.16-5.1-3.3,0-1.63,1.5-2.87,4.21-2.87a7.69,7.69,0,0,1,3.41.73l-.91,2.06a5,5,0,0,0-2.48-.64c-1,0-1.39.29-1.39.61,0,1.19,5.08-.1,5.08,3.33,0,1.59-1.46,2.84-4.27,2.84A7.86,7.86,0,0,1,287.88,262.79Z" fill="#1a2e35"/><path d="M306.06,260h-6.28a2,2,0,0,0,2.12,1.39,2.78,2.78,0,0,0,2-.75l1.59,1.65a4.66,4.66,0,0,1-3.68,1.41c-3.08,0-5.07-1.9-5.07-4.48a4.46,4.46,0,0,1,4.75-4.45,4.33,4.33,0,0,1,4.62,4.48C306.11,259.46,306.08,259.75,306.06,260Zm-6.32-1.59h3.54a1.8,1.8,0,0,0-3.54,0Z" fill="#1a2e35"/><path d="M313.48,263.19a4,4,0,0,1-2.11.5c-2.21,0-3.5-1.09-3.5-3.3v-2.9h-1.26v-2.27h1.26V253h3v2.24h2v2.27h-2v2.87a.87.87,0,0,0,.9,1,1.64,1.64,0,0,0,.93-.27Z" fill="#1a2e35"/><path d="M234.85,277.44v4h-3.16v-4.05l-4.25-7.11h3.33l2.65,4.43,2.64-4.43h3.06Z" fill="#1a2e35"/><path d="M238.28,277.1c0-2.59,2.05-4.44,4.88-4.44s4.87,1.85,4.87,4.44-2,4.48-4.87,4.48S238.28,279.72,238.28,277.1Zm6.69,0a1.83,1.83,0,1,0-3.63,0,1.83,1.83,0,1,0,3.63,0Z" fill="#1a2e35"/><path d="M258.52,272.8v8.64h-2.88v-.93a3.41,3.41,0,0,1-2.57,1.07c-2.12,0-3.67-1.21-3.67-3.95V272.8h3v4.34c0,1.33.53,1.86,1.44,1.86s1.62-.59,1.62-2V272.8Z" fill="#1a2e35"/><path d="M266.25,272.66v2.72a5.89,5.89,0,0,0-.68-.05,1.89,1.89,0,0,0-2.07,2.14v4h-3V272.8h2.88v1A3.54,3.54,0,0,1,266.25,272.66Z" fill="#1a2e35"/><path d="M282.37,274.41c0,2.53-1.91,4.11-5,4.11h-1.94v2.92h-3.16V270.28h5.1C280.46,270.28,282.37,271.86,282.37,274.41Zm-3.19,0c0-1-.65-1.64-2-1.64h-1.75V276h1.75C278.53,276,279.18,275.43,279.18,274.41Z" fill="#1a2e35"/><path d="M291.77,276.64v4.8H289v-1.12a2.61,2.61,0,0,1-2.55,1.26c-2.07,0-3.22-1.16-3.22-2.66s1.17-2.58,3.84-2.58h1.72c0-.88-.63-1.37-1.83-1.37a4,4,0,0,0-2.34.75l-1-2.06a7.28,7.28,0,0,1,3.81-1C290.16,272.66,291.77,273.9,291.77,276.64Zm-3,2v-.75h-1.3c-1,0-1.32.35-1.32.87s.41.88,1.13.88A1.48,1.48,0,0,0,288.74,278.67Z" fill="#1a2e35"/><path d="M293,280.69l.91-2.07a6.11,6.11,0,0,0,3,.8c1,0,1.36-.23,1.36-.59,0-1.17-5.1.15-5.1-3.3,0-1.63,1.5-2.87,4.21-2.87a7.55,7.55,0,0,1,3.41.73l-.91,2.06a5,5,0,0,0-2.49-.64c-1,0-1.39.29-1.39.6,0,1.2,5.09-.09,5.09,3.34,0,1.59-1.47,2.83-4.27,2.83A7.91,7.91,0,0,1,293,280.69Z" fill="#1a2e35"/><path d="M301.72,280.69l.91-2.07a6.11,6.11,0,0,0,3,.8c1,0,1.36-.23,1.36-.59,0-1.17-5.1.15-5.1-3.3,0-1.63,1.49-2.87,4.2-2.87a7.52,7.52,0,0,1,3.41.73l-.9,2.06a5,5,0,0,0-2.49-.64c-1,0-1.39.29-1.39.6,0,1.2,5.09-.09,5.09,3.34,0,1.59-1.47,2.83-4.27,2.83A7.91,7.91,0,0,1,301.72,280.69Z" fill="#1a2e35"/><path d="M325.28,272.8l-3.08,8.64h-2.93l-1.62-4.7-1.69,4.7H313L310,272.8h2.87l1.76,5.23,1.84-5.23H319l1.78,5.28,1.84-5.28Z" fill="#1a2e35"/><path d="M325.43,277.1c0-2.59,2.05-4.44,4.87-4.44s4.88,1.85,4.88,4.44-2,4.48-4.88,4.48S325.43,279.72,325.43,277.1Zm6.69,0a1.83,1.83,0,1,0-3.63,0,1.83,1.83,0,1,0,3.63,0Z" fill="#1a2e35"/><path d="M342.37,272.66v2.72a5.89,5.89,0,0,0-.69-.05,1.89,1.89,0,0,0-2.07,2.14v4h-3V272.8h2.89v1A3.53,3.53,0,0,1,342.37,272.66Z" fill="#1a2e35"/><path d="M352.71,269.61v11.83h-2.88v-.86a3.11,3.11,0,0,1-2.53,1,4.46,4.46,0,0,1,0-8.92,3.15,3.15,0,0,1,2.39.89v-3.94Zm-3,7.49a1.82,1.82,0,1,0-3.61,0,1.82,1.82,0,1,0,3.61,0Z" fill="#1a2e35"/><path d="M311.63,214.12l-6.35-1.32,8.06-38.66a8.47,8.47,0,0,0-1.26-5.82C302,154.32,285.5,160,283,172.1l-7.2,34.55-6.35-1.32,8.11-38.91a13.85,13.85,0,0,1,7.18-9.48c20.45-10.54,37.61,5.84,34.11,22.63Z" fill="#e1e1e1"/><path d="M311.63,214.12s0-.23.13-.69.23-1.13.41-2l1.57-7.69c.69-3.33,1.53-7.41,2.5-12.14Q317,188,317.8,184c.5-2.69,1.33-5.5,1.36-8.54a21,21,0,0,0-2-9.21c-.18-.37-.35-.75-.54-1.12l-.64-1.09a21.75,21.75,0,0,0-1.44-2.1c-.25-.35-.56-.65-.84-1a11.37,11.37,0,0,0-.88-1,20.65,20.65,0,0,0-2-1.74,21.66,21.66,0,0,0-4.65-2.77l-1.3-.49-.65-.24c-.22-.07-.45-.12-.67-.18l-1.36-.36c-.46-.09-.93-.15-1.4-.23a21.32,21.32,0,0,0-11.44,1.47,23.1,23.1,0,0,0-5.18,3.12,21.36,21.36,0,0,0-6.92,10.26c-.59,2-1,4.2-1.42,6.33-1.79,8.58-3.64,17.46-5.53,26.55-.25,1.21-.51,2.42-.76,3.62l-.11-.18,6.34,1.33-.18.11q2.16-10.31,4.2-20.12c.68-3.27,1.36-6.49,2-9.65.33-1.59.65-3.16,1-4.71a16.8,16.8,0,0,1,1.67-4.45,15.34,15.34,0,0,1,6.69-6.21,9.44,9.44,0,0,1,1-.45l1.06-.38a15.18,15.18,0,0,1,2.18-.48,16.33,16.33,0,0,1,2.2-.19c.36,0,.72,0,1.09.05l.54,0,.54.08a15.83,15.83,0,0,1,4.1,1.17,16,16,0,0,1,3.53,2.21A15.35,15.35,0,0,1,312,170a15.71,15.71,0,0,1,.86,3.71,15.54,15.54,0,0,1-.12,3.68c0,.3-.09.6-.14.9l-.18.87-.36,1.71c-.24,1.13-.47,2.25-.7,3.34q-1.36,6.54-2.51,12c-1.52,7.22-2.72,12.86-3.51,16.62l0-.05,4.78,1,1.17.25.39.09-.38-.07-1.16-.23-4.82-1h0v-.05c.78-3.76,1.94-9.41,3.43-16.64.75-3.61,1.58-7.62,2.48-12q.35-1.64.69-3.33l.36-1.72.18-.87c0-.29.09-.58.14-.88a14.43,14.43,0,0,0-.75-7.28,15.12,15.12,0,0,0-4.46-6.37,16,16,0,0,0-3.47-2.16,15,15,0,0,0-4-1.15l-.53-.08-.53,0c-.36,0-.71,0-1.07,0a15.87,15.87,0,0,0-4.3.66l-1,.37c-.35.11-.67.3-1,.45a15,15,0,0,0-6.55,6.1,16.26,16.26,0,0,0-1.64,4.36c-.32,1.56-.65,3.13-1,4.71l-2,9.66-4.19,20.12,0,.15-.15,0-6.35-1.32-.15,0,0-.15.75-3.62,5.54-26.55c.46-2.14.83-4.27,1.43-6.36a22.78,22.78,0,0,1,2.78-5.77,21.72,21.72,0,0,1,9.49-7.78,21.56,21.56,0,0,1,11.59-1.47c.47.08.95.14,1.41.24l1.58.41.86.27,1.29.48.59.26a21.5,21.5,0,0,1,4.41,2.67,20,20,0,0,1,2,1.77c.34.29.6.65.9,1s.59.65.84,1a20.09,20.09,0,0,1,1.46,2.13c.21.37.43.73.64,1.09s.36.77.54,1.14a21.24,21.24,0,0,1,2,9.32c0,3.07-.88,5.89-1.39,8.58s-1.1,5.23-1.6,7.6c-1,4.73-1.86,8.81-2.56,12.14s-1.26,5.91-1.63,7.66c-.18.87-.33,1.53-.42,2Z" fill="#1a2e35"/><path d="M260.92,187h57.2a3.74,3.74,0,0,1,3.74,3.74v42.53a3.4,3.4,0,0,1-3.4,3.4H260.92a0,0,0,0,1,0,0V187a0,0,0,0,1,0,0Z" transform="translate(49.35 -55) rotate(11.77)" fill="#375a64"/><g opacity="0.3"><path d="M261,187h56.82a4.12,4.12,0,0,1,4.12,4.12v41.77a3.78,3.78,0,0,1-3.78,3.78H261a0,0,0,0,1,0,0V187A0,0,0,0,1,261,187Z" transform="translate(49.36 -55) rotate(11.77)" fill="#58595b"/></g><path d="M262.31,186h48.41a4.06,4.06,0,0,1,4.06,4.06v40.64a5,5,0,0,1-5,5H262.45a4.2,4.2,0,0,1-4.2-4.2V190a4.06,4.06,0,0,1,4.06-4.06Z" transform="translate(49.04 -54.03) rotate(11.77)" fill="#6d6e71"/><g opacity="0.3"><path d="M295.1,208.12a6.92,6.92,0,0,0-5.58-8.24,7,7,0,0,0-8,5.35,6.91,6.91,0,0,0,3.57,7.59l-6.38,8.44,11.65,2.66-1.57-10.33A6.9,6.9,0,0,0,295.1,208.12Z"/></g><path d="M310.11,236.32c-.08,0,1.66-8.49,3.88-18.92s4.09-18.88,4.17-18.87-1.65,8.49-3.87,18.93S310.2,236.34,310.11,236.32Z" fill="#1a2e35"/><path d="M306.16,191.06c0,.09-7.5-1.3-16.71-3.09s-16.68-3.32-16.66-3.4,7.5,1.3,16.72,3.1S306.18,191,306.16,191.06Z" fill="#fff"/><path d="M280.54,208.9a1.79,1.79,0,0,1-.19-.48,6.75,6.75,0,0,1-.25-1.39,7.77,7.77,0,0,1,4.4-7.68,8,8,0,0,1,1.33-.48,1.55,1.55,0,0,1,.52-.07,17.22,17.22,0,0,0-1.75.74,8,8,0,0,0-4.29,7.47C280.36,208.18,280.6,208.89,280.54,208.9Z" fill="#fff"/><path d="M282.56,212.68c-.06.06-.43-.19-.82-.56s-.67-.71-.61-.78.42.19.82.56S282.61,212.62,282.56,212.68Z" fill="#fff"/><path d="M299.71,155.38s-.42,0-1.17-.08a19.87,19.87,0,0,0-3.2.06,18.61,18.61,0,0,0-15.83,12.14,19.43,19.43,0,0,0-.89,3.07,9,9,0,0,1-.23,1.15,1.69,1.69,0,0,1,0-.3c0-.2,0-.5.11-.87a17,17,0,0,1,.79-3.12,18.41,18.41,0,0,1,16-12.29,17.21,17.21,0,0,1,3.22,0c.38,0,.67.1.87.13A1.25,1.25,0,0,1,299.71,155.38Z" fill="#fff"/><path d="M277.05,176.92a5.74,5.74,0,0,1,.24-1.8,5.65,5.65,0,0,1,.53-1.73,5.24,5.24,0,0,1-.23,1.8A5.39,5.39,0,0,1,277.05,176.92Z" fill="#fff"/><path d="M183.95,47.75H203.3a0,0,0,0,1,0,0v204.9a8,8,0,0,1-8,8h-3.41a8,8,0,0,1-8-8V47.75A0,0,0,0,1,183.95,47.75Z" transform="translate(153.07 398.36) rotate(-119.1)" fill="#6d6e71"/><path d="M226.68,93.54H271a2.24,2.24,0,0,1,2.24,2.24v10.3a2.24,2.24,0,0,1-2.24,2.24h-44.3a0,0,0,0,1,0,0V93.54a0,0,0,0,1,0,0Z" transform="translate(283.33 368.41) rotate(-119.1)" fill="#58595b"/><rect x="207.53" y="109.9" width="37.5" height="14.77" rx="3.24" transform="translate(233.85 372.04) rotate(-119.1)" fill="#58595b"/><rect x="230.74" y="96.72" width="20.25" height="22.94" transform="translate(263.49 371.26) rotate(-119.1)" fill="#58595b"/><path d="M271.57,99.73c.05.09-34.93,19.66-78.13,43.71s-78.28,43.47-78.33,43.38S150,167.16,193.25,143.1,271.52,99.63,271.57,99.73Z" fill="#6d6e71"/><path d="M33.13,247.12C46.27,270.73,74,280.36,95.05,268.64s27.47-40.35,14.33-64-40.87-33.25-61.92-21.53S20,223.51,33.13,247.12ZM98,211c9.21,16.54,4.71,36.61-10,44.82s-34.18,1.46-43.39-15.08-4.71-36.62,10-44.83S88.76,194.48,98,211Z" fill="#6d6e71"/><rect x="120.56" y="181.47" width="29.63" height="10.53" rx="4.34" transform="translate(38.05 395.84) rotate(-119.1)" fill="#58595b"/><rect x="139.24" y="171.07" width="29.63" height="10.53" rx="4.34" transform="translate(74.91 396.71) rotate(-119.1)" fill="#58595b"/><path d="M134.91,175.14c.09-.06,2.35,3.91,5,8.85s4.8,9,4.71,9-2.35-3.91-5-8.85S134.81,175.19,134.91,175.14Z" fill="#6d6e71"/><path d="M126.33,181.27c.1-.05,2.3,3.73,4.93,8.45s4.68,8.58,4.58,8.63-2.29-3.73-4.92-8.45S126.24,181.32,126.33,181.27Z" fill="#6d6e71"/><path d="M153.71,164.88c.09,0,2.39,3.9,5.12,8.82s4.89,9,4.8,9-2.39-3.89-5.13-8.82S153.61,164.93,153.71,164.88Z" fill="#6d6e71"/><path d="M144.68,170.33c.1-.06,2.35,3.87,5,8.76s4.78,8.89,4.69,8.94-2.34-3.87-5-8.76S144.59,170.38,144.68,170.33Z" fill="#6d6e71"/><path d="M198.26,143.68c.32,1,.63,1.47.93,1.46.62,0,1.19-2.19,1.7-6.54a13.49,13.49,0,0,0-1.37-5.92,13.16,13.16,0,0,0-1.9-2.84,6,6,0,0,0-7.58-2.56,4.5,4.5,0,0,0-5-.76,15.13,15.13,0,0,0-3,1.33,16.56,16.56,0,0,0-2.9,2.26,51,51,0,0,1-4.72,3.76" fill="#1a2e35"/><path d="M183.27,130.51H184a14.8,14.8,0,0,1,14.72,13.67c.56,7.15,1.08,15.07,1,18.91-.12,7.95-8.07,9.16-8.07,9.16l.64,9.55-19.29-.66-1.6-34.64C170.77,138.25,175,131,183.27,130.51Z" fill="#ffc19d"/><path d="M191.77,172.24a19.29,19.29,0,0,1-10.41-3.08s2.56,6,10.5,5.32Z" fill="#ff9c6a"/><path d="M194.4,151.64a1.13,1.13,0,0,1-1.1,1.14,1.07,1.07,0,0,1-1.16-1,1.14,1.14,0,0,1,1.09-1.15A1.09,1.09,0,0,1,194.4,151.64Z" fill="#1a2e35"/><path d="M197,148.06c-.14.15-1-.49-2.22-.49s-2.12.61-2.25.46.08-.34.47-.62a3.1,3.1,0,0,1,1.8-.55,3,3,0,0,1,1.77.58C197,147.73,197.11,148,197,148.06Z" fill="#1a2e35"/><path d="M183.38,151.12a1.13,1.13,0,0,1-1.1,1.14,1.09,1.09,0,0,1-1.17-1,1.14,1.14,0,0,1,1.1-1.14A1.09,1.09,0,0,1,183.38,151.12Z" fill="#1a2e35"/><path d="M185,148.25c-.15.15-1-.49-2.23-.49s-2.11.61-2.25.46.08-.34.47-.62a3.21,3.21,0,0,1,1.81-.55,3,3,0,0,1,1.76.58C185,147.92,185.1,148.18,185,148.25Z" fill="#1a2e35"/><path d="M189.44,157.32a8.7,8.7,0,0,1,2-.35c.31,0,.6-.09.66-.3a1.63,1.63,0,0,0-.21-.93l-.91-2.38a42.19,42.19,0,0,1-2.06-6.22,40.68,40.68,0,0,1,2.55,6l.88,2.4a1.77,1.77,0,0,1,.16,1.22.8.8,0,0,1-.52.45,1.8,1.8,0,0,1-.53.08A7.85,7.85,0,0,1,189.44,157.32Z" fill="#1a2e35"/><path d="M186.11,143.55c-.16.31-1.21,0-2.5-.07s-2.37.16-2.49-.16c-.05-.15.18-.43.65-.68a4,4,0,0,1,1.93-.4,3.79,3.79,0,0,1,1.87.58C186,143.11,186.18,143.41,186.11,143.55Z" fill="#1a2e35"/><path d="M197.12,143c-.26.28-1.27,0-2.48,0s-2.24.18-2.47-.11c-.11-.14.05-.42.5-.68a4,4,0,0,1,2-.45,3.87,3.87,0,0,1,2,.57C197.09,142.6,197.23,142.89,197.12,143Z" fill="#1a2e35"/><path d="M198,140.53a11.76,11.76,0,0,0-4.48-6.16,12.06,12.06,0,0,0-1.75-.9,13.68,13.68,0,0,0-5.62-.95,13.07,13.07,0,0,0-7.93,2.83,5.24,5.24,0,0,0-1.79,2.13c-.55,1.47.07,3-.07,5.38-.82,14.3-3.44,18.34-4.17,11.6-.08-.74-2.12-1.33-2.42-4.45-.38-4-.52-8.95.39-11.82.77-2.42,2.15-4.08,4.63-5.92,3.91-2.89,9.28-2.94,12.92-2.56S198.36,134.3,198,140.53Z" fill="#1a2e35"/><path d="M172.71,154.24a2.15,2.15,0,0,0-2.32-2.08c-1.49.13-3.14,1-3,4,.16,5.44,5.58,4.16,5.59,4S172.8,156.52,172.71,154.24Z" fill="#ffc19d"/><path d="M171.69,158.18s-.1.07-.26.15a.94.94,0,0,1-.7,0,2.38,2.38,0,0,1-1.15-2.07,3,3,0,0,1,.23-1.37,1.09,1.09,0,0,1,.69-.75.5.5,0,0,1,.57.25c.07.15,0,.26.07.27s.11-.1.06-.32A.57.57,0,0,0,171,154a.72.72,0,0,0-.53-.12,1.32,1.32,0,0,0-1,.87,3.3,3.3,0,0,0-.29,1.53,2.46,2.46,0,0,0,1.45,2.3,1,1,0,0,0,.86-.17C171.68,158.32,171.7,158.19,171.69,158.18Z" fill="#ff9c6a"/><path d="M171.46,146.5c.61-.53.63-.28,3.69-1.72a6.61,6.61,0,0,0,2-1.24c.08-.08.29-.3.61-.58a8.53,8.53,0,0,1,.91-.71,17.05,17.05,0,0,0,3-3.66c-.16,1.08-.3,2.53.1,2.67s1.06-1.33,2.68-3.24,3.22-3.81,5.37-4c.4,0,1.23,0,2.9.11s2.24.17,2.41-.14-.67-1.25-1-1.54a17.75,17.75,0,0,0-6.89-4.05,16,16,0,0,0-10.35.61,15.05,15.05,0,0,0-5.8,4.27,14.63,14.63,0,0,0-3.13,8.24,15.41,15.41,0,0,0,.52,5.12c.24.72.64,1.68,1.21,1.71S170.38,147.44,171.46,146.5Z" fill="#1a2e35"/><path d="M189.42,161.38c0-.2-1.36.13-2.59-.77s-1.42-2.35-1.61-2.31-.18.37-.05,1a3.46,3.46,0,0,0,1.27,1.95,3,3,0,0,0,2.15.57C189.16,161.7,189.45,161.47,189.42,161.38Z" fill="#1a2e35"/><path d="M230.38,368l5.25,17.87s19.93.67,21.22,3.88L222.57,401.2l-9.32-27.51Z" fill="#375a64"/><path d="M224.54,388a1.47,1.47,0,0,0-.44,1.92,1.42,1.42,0,0,0,1.9.45,1.57,1.57,0,0,0,.45-2,1.48,1.48,0,0,0-2-.25" fill="#e1e1e1"/><path d="M254.92,388.49s1.74.16,1.93,1.29L222.57,401.2l-.84-2.81,33.19-9.9" fill="#1a2e35"/><path d="M236.13,385.54c.05.17-.76.53-1.41,1.34s-.85,1.66-1,1.65-.25-1.07.55-2S236.11,385.38,236.13,385.54Z" fill="#fff"/><path d="M240.22,385.83c.09.15-.54.68-.87,1.57s-.25,1.71-.42,1.75-.59-.86-.15-2S240.16,385.67,240.22,385.83Z" fill="#fff"/><path d="M243.7,389.46c-.14.08-.66-.68-.53-1.74s.78-1.68.9-1.57-.2.77-.29,1.64S243.86,389.38,243.7,389.46Z" fill="#fff"/><path d="M234.48,381.6c0,.18-.86.2-1.79.58s-1.56.93-1.7.81.38-.95,1.47-1.38S234.52,381.44,234.48,381.6Z" fill="#fff"/><path d="M150.37,368.19l-7.47,17.06s14.84,13.32,13.77,16.61l-33.61-13.29,10.54-27.06Z" fill="#375a64"/><path d="M133.09,379.69a1.47,1.47,0,0,0-1.57,1.19,1.42,1.42,0,0,0,1.17,1.56,1.56,1.56,0,0,0,1.65-1.27,1.48,1.48,0,0,0-1.4-1.49" fill="#e1e1e1"/><path d="M156,399.63s1.24,1.24.66,2.23l-33.61-13.29,1.17-2.69L156,399.63" fill="#1a2e35"/><path d="M143.51,385.3c-.07.16-.92-.09-1.93.12s-1.72.72-1.85.6.5-1,1.73-1.21S143.61,385.16,143.51,385.3Z" fill="#fff"/><path d="M146.46,388.15c0,.17-.84.17-1.68.64s-1.28,1.15-1.44,1.07.1-1,1.15-1.61S146.52,388,146.46,388.15Z" fill="#fff"/><path d="M146.8,393.16c-.17,0-.07-.94.71-1.67s1.68-.79,1.7-.62-.65.46-1.28,1.07S147,393.21,146.8,393.16Z" fill="#fff"/><path d="M144.78,381.22c-.12.12-.79-.4-1.74-.71s-1.79-.29-1.82-.47.9-.48,2-.11S144.92,381.12,144.78,381.22Z" fill="#fff"/><path d="M163,274.46l-11.78,47.76S129.94,358,126.34,375.85l19.43,7.64S159.9,349,164,342.72a50.3,50.3,0,0,1,6.4-7.88,12.36,12.36,0,0,0,3.22-5.59l8.91-34.07Z" fill="#1a2e35"/><path d="M157.93,266.83s1.64,12.78,13.95,18.45l25.94,42.25a170.86,170.86,0,0,0,6,25.31c3.89,11.5,11.71,33.88,11.71,33.88l21.34-8-13.6-46.5L221,316.13l-21.18-53.88-18.18-10.91Z" fill="#1a2e35"/><path d="M157.93,266.83l.39-.27,1.18-.79,4.61-3,17.47-11.48.06,0,.06,0,18.19,10.88,0,0,0,.05c5.93,15,13.16,33.41,21.21,53.87v0c.71,5.09,1.46,10.55,2.23,16.12v0c3.68,12.56,7.61,26,11.66,39.84l1.94,6.65.05.17-.16.07-21.34,8-.18.07-.07-.19L204.66,356c-.85-2.45-1.69-4.87-2.38-7.29s-1.32-4.83-1.89-7.21c-1.12-4.76-2-9.4-2.73-13.91l0,.06-25.89-42.28.05,0a24.16,24.16,0,0,1-8.15-6.19,25.91,25.91,0,0,1-4-6.39,27.65,27.65,0,0,1-1.48-4.4c-.12-.51-.19-.9-.24-1.17s0-.39,0-.39,0,.13.08.39.13.65.26,1.15a27.51,27.51,0,0,0,1.53,4.38,25.7,25.7,0,0,0,4,6.33,24.19,24.19,0,0,0,8.12,6.11l0,0v0l26,42.22v.06c.71,4.49,1.62,9.13,2.74,13.87.57,2.38,1.19,4.78,1.89,7.19s1.53,4.83,2.39,7.27c3.38,9.79,6.95,20.1,10.66,30.82l-.24-.12,21.33-8-.12.23c-.64-2.21-1.29-4.42-1.94-6.65L223,332.31v0h0c-.77-5.57-1.52-11-2.22-16.12v0c-8-20.47-15.23-38.85-21.13-53.9l.05.07-18.17-10.93h.12L164.2,262.8l-4.65,3-1.2.77Z" fill="#375a64"/><path d="M169.32,175.55s-6.21,4.79-9.24,10.14c-3.61,6.4-4,15.9-4.12,30.63-.1,13.64,1.94,17.43,1.15,22.57-1.54,10-2.69,43.73-2.69,43.73s19.92-7.66,23.81-11.05l3.9-3.38,25,8.25-5-30.67-3.45-38.22-4.42-20.28-.78-8L172,170.67Z" fill="#009464"/><path d="M192.65,178.89c.26,0-.62,1.79-2.16,4.36l-.06.11-.12-.05c-2.17-.83-5-1.89-8.16-3-3.53-1.29-6.72-2.49-9-3.42-1.14-.46-2.06-.86-2.68-1.14a5.51,5.51,0,0,1-1-.48,6.44,6.44,0,0,1,1,.34l2.73,1,9,3.3c3.13,1.15,6,2.24,8.14,3.13l-.18.06A23.7,23.7,0,0,0,192.65,178.89Z" fill="#1a2e35"/><path d="M218.43,162.94s-1.57-2.46-3.07-4.73-3.75-3.38-4.11-4.57-2.35-6.44-2.67-7.75a16.87,16.87,0,0,1-.38-3.85s1.63-.7,2.42,1.64c.47,1.4,2,6.16,2.3,6.4s.77-.11.77-.11a54.48,54.48,0,0,1-1.74-5.45c-.07-.86.23-6.59.23-6.59a1.72,1.72,0,0,1,2,1.1c.78,1.46.81,5.18.81,5.18l1.17,4.12-.41-4.08.59-7.49a2.81,2.81,0,0,1,2.36,2.19c.5,2-.16,4.85.18,5.45a26.51,26.51,0,0,1,.69,4.22s.4-8.79,1.34-9.05,1.71.69,1.58,2.46a27.24,27.24,0,0,0,.32,7.18c.48,1.66,5.49,8.09,5.07,11a47.79,47.79,0,0,0-.46,5.15h-8.59Z" fill="#ffc19d"/><path d="M188.38,185.08c.48.18,21,5.25,21,5.25s4.57-7.42,5.24-9.53,4.26-16.41,4.26-16.41l8.65-.82s-2.19,36.85-5.35,38.84a23.08,23.08,0,0,1-8.45,2.88c-.36-.11-22.12,1.41-33.61-7.64S188.38,185.08,188.38,185.08Z" fill="#ffc19d"/><g opacity="0.3"><path d="M173.71,204.58a15.62,15.62,0,0,0,8.37,4.92c5.43,1.2,17,3.31,17,3.31l-.57-5.67-25.14-2.69"/></g><path d="M164.6,196.78c1.86,3.93,6,8.14,15.09,9.08,18,1.86,31.62,2.85,37.51,2s8.23-13.34,8.84-13.72c1.83-1.16,1.71-5.12.13-6.3-4.49-3.36-13.5-5.94-14.1-5.64-3.58,1.78-2.41,6-2.41,6l-22.8-5a38.6,38.6,0,0,0-8.18-2.39" fill="#009464"/><path d="M178.68,180.69l.57.08c.37.06.92.16,1.62.32a36.94,36.94,0,0,1,6,1.9h0l22.81,5-.19.2a6.13,6.13,0,0,1,.29-3.93,4.35,4.35,0,0,1,1.29-1.63A6.4,6.4,0,0,1,212,182a1.27,1.27,0,0,1,.34-.05l.27,0a4.34,4.34,0,0,1,.52.09,46.09,46.09,0,0,1,8.18,2.76,32.05,32.05,0,0,1,4,2.11c.32.21.63.44,1,.66a2.74,2.74,0,0,1,.79.94,5.24,5.24,0,0,1,.54,2.33,5,5,0,0,1-.53,2.37,2.83,2.83,0,0,1-.84,1c-.09,0-.15.24-.22.41l-.2.56c-.49,1.51-1,3.06-1.56,4.58a20.74,20.74,0,0,1-3.36,6,6.75,6.75,0,0,1-2.77,2,7,7,0,0,1-1.67.32c-.55.08-1.1.09-1.65.14-2.19.13-4.34.09-6.45,0s-4.16-.17-6.17-.29c-8-.52-15.22-1.25-21.27-1.88a39.34,39.34,0,0,1-4.3-.62,22.42,22.42,0,0,1-3.71-1.13,16.22,16.22,0,0,1-5.24-3.29,13.94,13.94,0,0,1-2.42-3.08,8.13,8.13,0,0,1-.61-1.22s.21.43.68,1.18a14.4,14.4,0,0,0,2.46,3,16.09,16.09,0,0,0,5.21,3.2,22.08,22.08,0,0,0,3.68,1.09,40.94,40.94,0,0,0,4.28.59c6.05.59,13.25,1.3,21.27,1.79,2,.12,4,.23,6.15.28s4.25.08,6.42,0c.54-.05,1.09-.06,1.63-.14a5.53,5.53,0,0,0,4.2-2.2,20.63,20.63,0,0,0,3.28-5.91c.59-1.51,1.07-3,1.56-4.56l.2-.57c0-.1.08-.19.12-.29a.65.65,0,0,1,.09-.16l.1-.1.06-.05a2.52,2.52,0,0,0,.71-.81,4.56,4.56,0,0,0,.49-2.18,4.82,4.82,0,0,0-.49-2.16,2.47,2.47,0,0,0-.68-.82l-.93-.64a31.31,31.31,0,0,0-4-2.09,45.87,45.87,0,0,0-8.1-2.76l-.49-.09-.25,0h-.16a4.69,4.69,0,0,0-.83.53,4.06,4.06,0,0,0-1.2,1.5,5.83,5.83,0,0,0-.29,3.7l.06.27-.25-.06-22.78-5.1h0a41.86,41.86,0,0,0-6-2c-.7-.17-1.25-.29-1.61-.36Z" fill="#009464"/><path d="M217.2,195.24a4.94,4.94,0,0,1-1.47-.64,15,15,0,0,1-3.11-2.32,15.46,15.46,0,0,1-2.42-3,5.25,5.25,0,0,1-.7-1.45,32.23,32.23,0,0,0,3.39,4.2A29.42,29.42,0,0,0,217.2,195.24Z" fill="#1a2e35"/></g></svg>