<svg width="48" height="48" viewBox="0 0 48 48" fill="none" xmlns="http://www.w3.org/2000/svg">
<rect width="48" height="48" rx="20" fill="#E0F2ED"/>
<path d="M26.3346 25.1665C27.3069 25.1665 28.1332 24.8262 28.8138 24.1457C29.4944 23.4651 29.8346 22.6387 29.8346 21.6665C29.8346 20.6943 29.4944 19.8679 28.8138 19.1873C28.1332 18.5068 27.3069 18.1665 26.3346 18.1665C25.3624 18.1665 24.536 18.5068 23.8555 19.1873C23.1749 19.8679 22.8346 20.6943 22.8346 21.6665C22.8346 22.6387 23.1749 23.4651 23.8555 24.1457C24.536 24.8262 25.3624 25.1665 26.3346 25.1665ZM18.168 28.6665C17.5263 28.6665 16.9772 28.4378 16.5206 27.9805C16.0633 27.5239 15.8346 26.9748 15.8346 26.3332V16.9998C15.8346 16.3582 16.0633 15.8091 16.5206 15.3525C16.9772 14.8952 17.5263 14.6665 18.168 14.6665H34.5013C35.143 14.6665 35.6925 14.8952 36.1498 15.3525C36.6064 15.8091 36.8346 16.3582 36.8346 16.9998V26.3332C36.8346 26.9748 36.6064 27.5239 36.1498 27.9805C35.6925 28.4378 35.143 28.6665 34.5013 28.6665H18.168ZM13.5013 33.3332C12.8596 33.3332 12.3105 33.1049 11.854 32.6483C11.3966 32.191 11.168 31.6415 11.168 30.9998V19.3332C11.168 19.0026 11.28 18.7253 11.504 18.5013C11.7272 18.2781 12.0041 18.1665 12.3346 18.1665C12.6652 18.1665 12.9425 18.2781 13.1665 18.5013C13.3897 18.7253 13.5013 19.0026 13.5013 19.3332V30.9998H32.168C32.4985 30.9998 32.7754 31.1118 32.9986 31.3358C33.2226 31.5591 33.3346 31.8359 33.3346 32.1665C33.3346 32.4971 33.2226 32.7739 32.9986 32.9972C32.7754 33.2212 32.4985 33.3332 32.168 33.3332H13.5013ZM18.168 19.3332C18.8096 19.3332 19.3587 19.1045 19.8153 18.6472C20.2726 18.1906 20.5013 17.6415 20.5013 16.9998H18.168V19.3332ZM34.5013 19.3332V16.9998H32.168C32.168 17.6415 32.3962 18.1906 32.8528 18.6472C33.3101 19.1045 33.8596 19.3332 34.5013 19.3332ZM18.168 26.3332H20.5013C20.5013 25.6915 20.2726 25.142 19.8153 24.6847C19.3587 24.2281 18.8096 23.9998 18.168 23.9998V26.3332ZM32.168 26.3332H34.5013V23.9998C33.8596 23.9998 33.3101 24.2281 32.8528 24.6847C32.3962 25.142 32.168 25.6915 32.168 26.3332Z" fill="#009465"/>
</svg>
