<svg width="48" height="48" viewBox="0 0 48 48" fill="none" xmlns="http://www.w3.org/2000/svg">
<rect width="48" height="48" rx="20" fill="#7E69B8" fill-opacity="0.12"/>
<mask id="mask0_1502_21" style="mask-type:alpha" maskUnits="userSpaceOnUse" x="12" y="12" width="24" height="24">
<rect x="12" y="12" width="24" height="24" fill="#D9D9D9"/>
</mask>
<g mask="url(#mask0_1502_21)">
<path d="M28 25C27.2333 24.3 26.4875 23.6125 25.7625 22.9375C25.0375 22.2625 24.3958 21.6 23.8375 20.95C23.2792 20.3 22.8333 19.6708 22.5 19.0625C22.1667 18.4542 22 17.8667 22 17.3C22 16.3667 22.3167 15.5833 22.95 14.95C23.5833 14.3167 24.3667 14 25.3 14C25.8333 14 26.3333 14.1125 26.8 14.3375C27.2667 14.5625 27.6667 14.8667 28 15.25C28.3333 14.8667 28.7333 14.5625 29.2 14.3375C29.6667 14.1125 30.1667 14 30.7 14C31.6333 14 32.4167 14.3167 33.05 14.95C33.6833 15.5833 34 16.3667 34 17.3C34 17.8667 33.8333 18.4542 33.5 19.0625C33.1667 19.6708 32.7208 20.3 32.1625 20.95C31.6042 21.6 30.9667 22.2625 30.25 22.9375C29.5333 23.6125 28.7833 24.3 28 25ZM28 22.3C28.9833 21.3667 29.8958 20.4375 30.7375 19.5125C31.5792 18.5875 32 17.85 32 17.3C32 16.9167 31.8792 16.6042 31.6375 16.3625C31.3958 16.1208 31.0833 16 30.7 16C30.4667 16 30.2458 16.0458 30.0375 16.1375C29.8292 16.2292 29.65 16.3667 29.5 16.55L28 18.35L26.5 16.55C26.35 16.3667 26.1708 16.2292 25.9625 16.1375C25.7542 16.0458 25.5333 16 25.3 16C24.9167 16 24.6042 16.1208 24.3625 16.3625C24.1208 16.6042 24 16.9167 24 17.3C24 17.85 24.4208 18.5875 25.2625 19.5125C26.1042 20.4375 27.0167 21.3667 28 22.3ZM26 34.5L19 32.55V34H13V23H20.95L27.15 25.3C27.7 25.5 28.1458 25.85 28.4875 26.35C28.8292 26.85 29 27.4 29 28H31C31.8333 28 32.5417 28.275 33.125 28.825C33.7083 29.375 34 30.1 34 31V32L26 34.5ZM15 32H17V25H15V32ZM25.95 32.4L31.9 30.55C31.85 30.3667 31.7375 30.2292 31.5625 30.1375C31.3875 30.0458 31.2 30 31 30H26.2C25.6833 30 25.2167 29.9667 24.8 29.9C24.3833 29.8333 23.9333 29.7167 23.45 29.55L21.725 28.95L22.3 27.05L24.3 27.7C24.6 27.8 24.95 27.875 25.35 27.925C25.75 27.975 26.3 28 27 28C27 27.8167 26.9458 27.6417 26.8375 27.475C26.7292 27.3083 26.6 27.2 26.45 27.15L20.6 25H19V30.5L25.95 32.4Z" fill="#7E69B8"/>
</g>
</svg>
