<svg width="49" height="49" viewBox="0 0 49 49" fill="none" xmlns="http://www.w3.org/2000/svg">
<rect x="0.90625" y="0.5" width="48" height="48" rx="20" fill="#009465" fill-opacity="0.12"/>
<path d="M31.9069 17.5002C31.2652 17.5002 30.7157 17.2715 30.2584 16.8142C29.8018 16.3576 29.5736 15.8085 29.5736 15.1668C29.5736 14.5252 29.8018 13.9757 30.2584 13.5183C30.7157 13.0618 31.2652 12.8335 31.9069 12.8335C32.5486 12.8335 33.0981 13.0618 33.5554 13.5183C34.012 13.9757 34.2402 14.5252 34.2402 15.1668C34.2402 15.8085 34.012 16.3576 33.5554 16.8142C33.0981 17.2715 32.5486 17.5002 31.9069 17.5002ZM30.7402 36.1668V26.8335C30.7402 26.0557 30.5411 25.3557 30.1429 24.7335C29.7439 24.1113 29.2333 23.6252 28.6111 23.2752L29.6319 20.271C29.7875 19.7849 30.0745 19.396 30.4929 19.1043C30.9106 18.8127 31.3819 18.6668 31.9069 18.6668C32.4319 18.6668 32.9032 18.8127 33.3209 19.1043C33.7393 19.396 34.0263 19.7849 34.1819 20.271L36.6319 27.621C36.768 28.0099 36.7147 28.3646 36.4721 28.685C36.2286 29.0062 35.9125 29.1668 35.5236 29.1668H34.2402V35.0002C34.2402 35.3307 34.1282 35.6076 33.9042 35.8308C33.681 36.0548 33.4041 36.1668 33.0736 36.1668H30.7402ZM25.4902 23.9168C25.0041 23.9168 24.5911 23.7465 24.2512 23.4058C23.9106 23.0659 23.7402 22.6529 23.7402 22.1668C23.7402 21.6807 23.9106 21.2677 24.2512 20.9278C24.5911 20.5872 25.0041 20.4168 25.4902 20.4168C25.9763 20.4168 26.3893 20.5872 26.7292 20.9278C27.0699 21.2677 27.2402 21.6807 27.2402 22.1668C27.2402 22.6529 27.0699 23.0659 26.7292 23.4058C26.3893 23.7465 25.9763 23.9168 25.4902 23.9168ZM17.3236 17.5002C16.6819 17.5002 16.1328 17.2715 15.6762 16.8142C15.2189 16.3576 14.9902 15.8085 14.9902 15.1668C14.9902 14.5252 15.2189 13.9757 15.6762 13.5183C16.1328 13.0618 16.6819 12.8335 17.3236 12.8335C17.9652 12.8335 18.5143 13.0618 18.9709 13.5183C19.4282 13.9757 19.6569 14.5252 19.6569 15.1668C19.6569 15.8085 19.4282 16.3576 18.9709 16.8142C18.5143 17.2715 17.9652 17.5002 17.3236 17.5002ZM16.1569 36.1668C15.8263 36.1668 15.5495 36.0548 15.3262 35.8308C15.1022 35.6076 14.9902 35.3307 14.9902 35.0002V28.0002H14.4069C14.0763 28.0002 13.7995 27.8882 13.5762 27.6642C13.3522 27.4409 13.2402 27.1641 13.2402 26.8335V21.0002C13.2402 20.3585 13.4689 19.809 13.9262 19.3517C14.3828 18.8951 14.9319 18.6668 15.5736 18.6668H19.0736C19.7152 18.6668 20.2643 18.8951 20.7209 19.3517C21.1782 19.809 21.4069 20.3585 21.4069 21.0002V26.8335C21.4069 27.1641 21.2953 27.4409 21.0721 27.6642C20.8481 27.8882 20.5708 28.0002 20.2402 28.0002H19.6569V35.0002C19.6569 35.3307 19.5453 35.6076 19.3221 35.8308C19.0981 36.0548 18.8208 36.1668 18.4902 36.1668H16.1569ZM24.9069 36.1668C24.5763 36.1668 24.2995 36.0548 24.0762 35.8308C23.8522 35.6076 23.7402 35.3307 23.7402 35.0002V31.5002C23.4097 31.5002 23.1328 31.3882 22.9096 31.1642C22.6856 30.9409 22.5736 30.6641 22.5736 30.3335V26.8335C22.5736 26.3474 22.7439 25.9344 23.0846 25.5945C23.4245 25.2538 23.8375 25.0835 24.3236 25.0835H26.6569C27.143 25.0835 27.556 25.2538 27.8959 25.5945C28.2366 25.9344 28.4069 26.3474 28.4069 26.8335V30.3335C28.4069 30.6641 28.2953 30.9409 28.0721 31.1642C27.8481 31.3882 27.5708 31.5002 27.2402 31.5002V35.0002C27.2402 35.3307 27.1286 35.6076 26.9054 35.8308C26.6814 36.0548 26.4041 36.1668 26.0736 36.1668H24.9069Z" fill="#009465"/>
</svg>
