<svg width="49" height="49" viewBox="0 0 49 49" fill="none" xmlns="http://www.w3.org/2000/svg">
<rect x="0.90625" y="0.5" width="48" height="48" rx="20" fill="#F6244E" fill-opacity="0.12"/>
<path d="M23.7402 28.0002V30.3335C23.7402 30.6641 23.8522 30.9409 24.0762 31.1642C24.2995 31.3882 24.5763 31.5002 24.9069 31.5002C25.2375 31.5002 25.5147 31.3882 25.7387 31.1642C25.962 30.9409 26.0736 30.6641 26.0736 30.3335V28.0002H28.4069C28.7375 28.0002 29.0147 27.8882 29.2387 27.6642C29.462 27.4409 29.5736 27.1641 29.5736 26.8335C29.5736 26.5029 29.462 26.2257 29.2387 26.0017C29.0147 25.7784 28.7375 25.6668 28.4069 25.6668H26.0736V23.3335C26.0736 23.0029 25.962 22.7257 25.7387 22.5017C25.5147 22.2784 25.2375 22.1668 24.9069 22.1668C24.5763 22.1668 24.2995 22.2784 24.0762 22.5017C23.8522 22.7257 23.7402 23.0029 23.7402 23.3335V25.6668H21.4069C21.0763 25.6668 20.7995 25.7784 20.5762 26.0017C20.3522 26.2257 20.2402 26.5029 20.2402 26.8335C20.2402 27.1641 20.3522 27.4409 20.5762 27.6642C20.7995 27.8882 21.0763 28.0002 21.4069 28.0002H23.7402ZM15.5736 36.1668C14.9319 36.1668 14.3828 35.9386 13.9262 35.482C13.4689 35.0247 13.2402 34.4752 13.2402 33.8335V19.8335C13.2402 19.1918 13.4689 18.6427 13.9262 18.1862C14.3828 17.7288 14.9319 17.5002 15.5736 17.5002H20.2402V15.1668C20.2402 14.5252 20.4689 13.9757 20.9262 13.5183C21.3828 13.0618 21.9319 12.8335 22.5736 12.8335H27.2402C27.8819 12.8335 28.4314 13.0618 28.8887 13.5183C29.3453 13.9757 29.5736 14.5252 29.5736 15.1668V17.5002H34.2402C34.8819 17.5002 35.4314 17.7288 35.8887 18.1862C36.3453 18.6427 36.5736 19.1918 36.5736 19.8335V33.8335C36.5736 34.4752 36.3453 35.0247 35.8887 35.482C35.4314 35.9386 34.8819 36.1668 34.2402 36.1668H15.5736ZM22.5736 17.5002H27.2402V15.1668H22.5736V17.5002ZM15.5736 33.8335H34.2402V19.8335H15.5736V33.8335Z" fill="#F6244E"/>
</svg>
