<svg width="49" height="49" viewBox="0 0 49 49" fill="none" xmlns="http://www.w3.org/2000/svg">
<rect x="0.90625" y="0.5" width="48" height="48" rx="20" fill="#009465" fill-opacity="0.12"/>
<path d="M13.2389 33.8335C12.9084 33.8335 12.6315 33.7215 12.4083 33.4975C12.1843 33.2743 12.0723 32.9974 12.0723 32.6668V17.5002C12.0723 17.1696 12.1843 16.8923 12.4083 16.6683C12.6315 16.4451 12.9084 16.3335 13.2389 16.3335C13.5695 16.3335 13.8468 16.4451 14.0708 16.6683C14.294 16.8923 14.4056 17.1696 14.4056 17.5002V28.0002H23.7389V21.0002C23.7389 20.3585 23.9676 19.809 24.4249 19.3517C24.8815 18.8951 25.4306 18.6668 26.0723 18.6668H33.0723C34.3556 18.6668 35.4542 19.1238 36.3681 20.0377C37.282 20.9516 37.7389 22.0502 37.7389 23.3335V32.6668C37.7389 32.9974 37.6269 33.2743 37.4029 33.4975C37.1797 33.7215 36.9028 33.8335 36.5723 33.8335C36.2417 33.8335 35.9648 33.7215 35.7416 33.4975C35.5176 33.2743 35.4056 32.9974 35.4056 32.6668V30.3335H14.4056V32.6668C14.4056 32.9974 14.294 33.2743 14.0708 33.4975C13.8468 33.7215 13.5695 33.8335 13.2389 33.8335ZM19.0723 26.8335C18.1 26.8335 17.2737 26.4932 16.5931 25.8127C15.9125 25.1321 15.5723 24.3057 15.5723 23.3335C15.5723 22.3613 15.9125 21.5349 16.5931 20.8543C17.2737 20.1738 18.1 19.8335 19.0723 19.8335C20.0445 19.8335 20.8709 20.1738 21.5514 20.8543C22.232 21.5349 22.5723 22.3613 22.5723 23.3335C22.5723 24.3057 22.232 25.1321 21.5514 25.8127C20.8709 26.4932 20.0445 26.8335 19.0723 26.8335ZM26.0723 28.0002H35.4056V23.3335C35.4056 22.6918 35.1773 22.1423 34.7208 21.685C34.2634 21.2284 33.7139 21.0002 33.0723 21.0002H26.0723V28.0002ZM19.0723 24.5002C19.4028 24.5002 19.6801 24.3882 19.9041 24.1642C20.1273 23.9409 20.2389 23.6641 20.2389 23.3335C20.2389 23.0029 20.1273 22.7257 19.9041 22.5017C19.6801 22.2784 19.4028 22.1668 19.0723 22.1668C18.7417 22.1668 18.4644 22.2784 18.2404 22.5017C18.0172 22.7257 17.9056 23.0029 17.9056 23.3335C17.9056 23.6641 18.0172 23.9409 18.2404 24.1642C18.4644 24.3882 18.7417 24.5002 19.0723 24.5002Z" fill="#009465"/>
</svg>
