<svg width="49" height="49" viewBox="0 0 49 49" fill="none" xmlns="http://www.w3.org/2000/svg">
<rect x="0.90625" y="0.5" width="48" height="48" rx="20" fill="#009465" fill-opacity="0.12"/>
<path d="M22.8056 25.9001L21.5806 24.6751C21.8528 24.2862 21.9889 23.8437 21.9889 23.3474C21.9889 22.852 21.8528 22.4098 21.5806 22.0209L22.8056 20.7668C23.4278 21.5057 23.7389 22.3612 23.7389 23.3334C23.7389 24.3057 23.4278 25.1612 22.8056 25.9001ZM25.2848 28.4084L24.0306 27.1543C25.0028 26.0654 25.4889 24.7964 25.4889 23.3474C25.4889 21.8992 25.0028 20.6307 24.0306 19.5418L25.2848 18.2876C25.9264 19.007 26.4125 19.8043 26.7431 20.6793C27.0737 21.5543 27.2389 22.4437 27.2389 23.3474C27.2389 24.252 27.0737 25.1418 26.7431 26.0168C26.4125 26.8918 25.9264 27.689 25.2848 28.4084ZM16.7389 24.5001C16.0973 24.5001 15.5478 24.2714 15.0904 23.8141C14.6339 23.3575 14.4056 22.8084 14.4056 22.1668C14.4056 21.5251 14.6339 20.9756 15.0904 20.5183C15.5478 20.0617 16.0973 19.8334 16.7389 19.8334C17.3806 19.8334 17.9297 20.0617 18.3863 20.5183C18.8436 20.9756 19.0723 21.5251 19.0723 22.1668C19.0723 22.8084 18.8436 23.3575 18.3863 23.8141C17.9297 24.2714 17.3806 24.5001 16.7389 24.5001ZM12.0723 29.1668V28.4959C12.0723 28.0293 12.1987 27.6015 12.4514 27.2126C12.7042 26.8237 13.0542 26.532 13.5014 26.3376C14.007 26.1237 14.5269 25.9584 15.0613 25.8418C15.5964 25.7251 16.1556 25.6668 16.7389 25.6668C17.3223 25.6668 17.8815 25.7251 18.4166 25.8418C18.9509 25.9584 19.4709 26.1237 19.9764 26.3376C20.4237 26.532 20.7737 26.8237 21.0264 27.2126C21.2792 27.6015 21.4056 28.0293 21.4056 28.4959V29.1668H12.0723ZM33.0723 24.5001C32.4306 24.5001 31.8811 24.2714 31.4238 23.8141C30.9672 23.3575 30.7389 22.8084 30.7389 22.1668C30.7389 21.5251 30.9672 20.9756 31.4238 20.5183C31.8811 20.0617 32.4306 19.8334 33.0723 19.8334C33.7139 19.8334 34.2634 20.0617 34.7208 20.5183C35.1773 20.9756 35.4056 21.5251 35.4056 22.1668C35.4056 22.8084 35.1773 23.3575 34.7208 23.8141C34.2634 24.2714 33.7139 24.5001 33.0723 24.5001ZM28.4056 29.1668V28.4959C28.4056 28.0293 28.532 27.6015 28.7848 27.2126C29.0375 26.8237 29.3875 26.532 29.8348 26.3376C30.3403 26.1237 30.8603 25.9584 31.3946 25.8418C31.9297 25.7251 32.4889 25.6668 33.0723 25.6668C33.6556 25.6668 34.2148 25.7251 34.7499 25.8418C35.2843 25.9584 35.8042 26.1237 36.3098 26.3376C36.757 26.532 37.107 26.8237 37.3598 27.2126C37.6125 27.6015 37.7389 28.0293 37.7389 28.4959V29.1668H28.4056Z" fill="#009465"/>
</svg>
