<svg width="48" height="48" viewBox="0 0 48 48" fill="none" xmlns="http://www.w3.org/2000/svg">
<rect width="48" height="48" rx="20" fill="#2E81E7" fill-opacity="0.12"/>
<g clip-path="url(#clip0_1502_21)">
<path d="M20.22 11H13.3675C12.06 11 11 12.06 11 13.3675V20.22C11 21.5275 12.06 22.5875 13.3675 22.5875H20.22C21.5275 22.5875 22.5875 21.5275 22.5875 20.22V13.3675C22.5875 12.06 21.5275 11 20.22 11Z" fill="#2E81E7"/>
<path d="M33.6321 11H26.7796C25.4721 11 24.4121 12.06 24.4121 13.3675V20.22C24.4121 21.5275 25.4721 22.5875 26.7796 22.5875H33.6321C34.9396 22.5875 35.9996 21.5275 35.9996 20.22V13.3675C35.9996 12.06 34.9396 11 33.6321 11Z" fill="#2E81E7"/>
<path d="M20.22 24.4126H13.3675C12.06 24.4126 11 25.4726 11 26.7801V33.6326C11 34.9401 12.06 36.0001 13.3675 36.0001H20.22C21.5275 36.0001 22.5875 34.9401 22.5875 33.6326V26.7801C22.5875 25.4726 21.5275 24.4126 20.22 24.4126Z" fill="#2E81E7"/>
<path d="M33.6321 24.4126H26.7796C25.4721 24.4126 24.4121 25.4726 24.4121 26.7801V33.6326C24.4121 34.9401 25.4721 36.0001 26.7796 36.0001H33.6321C34.9396 36.0001 35.9996 34.9401 35.9996 33.6326V26.7801C35.9996 25.4726 34.9396 24.4126 33.6321 24.4126Z" fill="#2E81E7"/>
</g>
<defs>
<clipPath id="clip0_1502_21">
<rect width="25" height="25" fill="white" transform="translate(11 11)"/>
</clipPath>
</defs>
</svg>
