<svg width="49" height="49" viewBox="0 0 49 49" fill="none" xmlns="http://www.w3.org/2000/svg">
<rect x="0.90625" y="0.5" width="48" height="48" rx="20" fill="#2E81E7" fill-opacity="0.12"/>
<path d="M23.7396 34.9998H16.7396C16.0979 34.9998 15.5484 34.7716 15.0911 34.315C14.6345 33.8577 14.4062 33.3082 14.4062 32.6665V16.3332C14.4062 15.6915 14.6345 15.142 15.0911 14.6847C15.5484 14.2281 16.0979 13.9998 16.7396 13.9998H21.6104C21.8243 13.3193 22.2424 12.7601 22.8646 12.3222C23.4868 11.8851 24.1674 11.6665 24.9062 11.6665C25.684 11.6665 26.3794 11.8851 26.9922 12.3222C27.6044 12.7601 28.0174 13.3193 28.2312 13.9998H33.0729C33.7146 13.9998 34.2641 14.2281 34.7214 14.6847C35.178 15.142 35.4062 15.6915 35.4062 16.3332V22.1665H33.0729V16.3332H30.7396V19.8332H19.0729V16.3332H16.7396V32.6665H23.7396V34.9998ZM28.9896 33.7457L24.0312 28.7873L25.6646 27.154L28.9896 30.479L35.5812 23.8873L37.2146 25.5207L28.9896 33.7457ZM24.9062 16.3332C25.2368 16.3332 25.5141 16.2212 25.7381 15.9972C25.9613 15.7739 26.0729 15.4971 26.0729 15.1665C26.0729 14.8359 25.9613 14.5587 25.7381 14.3347C25.5141 14.1114 25.2368 13.9998 24.9062 13.9998C24.5757 13.9998 24.2988 14.1114 24.0756 14.3347C23.8516 14.5587 23.7396 14.8359 23.7396 15.1665C23.7396 15.4971 23.8516 15.7739 24.0756 15.9972C24.2988 16.2212 24.5757 16.3332 24.9062 16.3332Z" fill="#2E81E7"/>
</svg>
