<svg width="48" height="48" viewBox="0 0 48 48" fill="none" xmlns="http://www.w3.org/2000/svg">
    <rect width="48" height="48" rx="20" fill="#E6F0FC" />
    <path
        d="M28.6667 25.75C29.1722 25.75 29.5903 25.5847 29.9208 25.2542C30.2514 24.9236 30.4167 24.5056 30.4167 24C30.4167 23.4944 30.2514 23.0764 29.9208 22.7458C29.5903 22.4153 29.1722 22.25 28.6667 22.25C28.1611 22.25 27.7431 22.4153 27.4125 22.7458C27.0819 23.0764 26.9167 23.4944 26.9167 24C26.9167 24.5056 27.0819 24.9236 27.4125 25.2542C27.7431 25.5847 28.1611 25.75 28.6667 25.75ZM25.1667 29.8333C24.525 29.8333 23.9759 29.6051 23.5193 29.1485C23.062 28.6912 22.8333 28.1417 22.8333 27.5V20.5C22.8333 19.8583 23.062 19.3088 23.5193 18.8515C23.9759 18.3949 24.525 18.1667 25.1667 18.1667H33.3333C33.975 18.1667 34.5245 18.3949 34.9818 18.8515C35.4384 19.3088 35.6667 19.8583 35.6667 20.5V27.5C35.6667 28.1417 35.4384 28.6912 34.9818 29.1485C34.5245 29.6051 33.975 29.8333 33.3333 29.8333H25.1667ZM15.8333 34.5C15.1917 34.5 14.6422 34.2717 14.1848 33.8152C13.7283 33.3578 13.5 32.8083 13.5 32.1667V15.8333C13.5 15.1917 13.7283 14.6422 14.1848 14.1848C14.6422 13.7283 15.1917 13.5 15.8333 13.5H32.1667C32.8083 13.5 33.3578 13.7283 33.8152 14.1848C34.2717 14.6422 34.5 15.1917 34.5 15.8333H25.1667C23.7861 15.8333 22.6634 16.2658 21.7985 17.1307C20.9328 17.9963 20.5 19.1194 20.5 20.5V27.5C20.5 28.8806 20.9328 30.0033 21.7985 30.8682C22.6634 31.7338 23.7861 32.1667 25.1667 32.1667H34.5C34.5 32.8083 34.2717 33.3578 33.8152 33.8152C33.3578 34.2717 32.8083 34.5 32.1667 34.5H15.8333Z"
        fill="#2E81E7" />
</svg>